<?xml version="1.0" encoding="UTF-8"?>
<svg version="1.1" xmlns="http://www.w3.org/2000/svg" width="500" height="500">
<path d="M0 0 C9.76150988 -0.02312446 19.5230133 -0.04091561 29.28454494 -0.05181217 C33.81674094 -0.05704078 38.34891827 -0.06413801 42.88110352 -0.07543945 C47.2512283 -0.08626914 51.62133508 -0.09227701 55.99147224 -0.09487724 C57.66250963 -0.09673135 59.33354597 -0.10035168 61.00457573 -0.10573006 C63.33697551 -0.11294159 65.66929993 -0.1139909 68.00170898 -0.11352539 C68.6994191 -0.11712067 69.39712921 -0.12071594 70.11598206 -0.12442017 C74.88594784 -0.11405216 74.88594784 -0.11405216 76 1 C76.04092937 3.33297433 76.04241723 5.66705225 76 8 C77.14339844 7.98839844 78.28679687 7.97679688 79.46484375 7.96484375 C80.95572754 7.95546712 82.44661309 7.94636679 83.9375 7.9375 C85.06961914 7.92493164 85.06961914 7.92493164 86.22460938 7.91210938 C88.14994313 7.90347559 90.07535581 7.94775667 92 8 C93 9 93 9 93 16 C98.28 16 103.56 16 109 16 C109 18.64 109 21.28 109 24 C111.64 24 114.28 24 117 24 C117 26.64 117 29.28 117 32 C119.31 32 121.62 32 124 32 C124.33 33.98 124.66 35.96 125 38 C126.65 38.33 128.3 38.66 130 39 C130.33 40.98 130.66 42.96 131 45 C133.97 45.495 133.97 45.495 137 46 C137 48.31 137 50.62 137 53 C138.423125 52.938125 138.423125 52.938125 139.875 52.875 C143 53 143 53 145 55 C145.125 58.625 145.125 58.625 145 62 C147.31 62 149.62 62 152 62 C152 67.28 152 72.56 152 78 C154.31 78 156.62 78 159 78 C160 79 160 79 160.09765625 82.37890625 C160.09098369 83.77347077 160.07902532 85.16801743 160.0625 86.5625 C160.05798828 87.27341797 160.05347656 87.98433594 160.04882812 88.71679688 C160.03700864 90.47790013 160.01907263 92.23896036 160 94 C162.64 94 165.28 94 168 94 C168 96.97 168 99.94 168 103 C170.64 103 173.28 103 176 103 C176 120.82 176 138.64 176 157 C173.36 157.33 170.72 157.66 168 158 C168.00222061 158.95703827 168.00444122 159.91407654 168.00672913 160.90011597 C168.02725249 170.04545598 168.04210973 179.19079116 168.05181217 188.33614922 C168.05696838 193.03465633 168.06392887 197.73314444 168.07543945 202.43164062 C168.12529094 223.31210631 168.10229746 244.14210933 167 265 C164.36 265 161.72 265 159 265 C159 270.94 159 276.88 159 283 C156.36 283 153.72 283 151 283 C151 285.31 151 287.62 151 290 C148.36 290 145.72 290 143 290 C143 292.64 143 295.28 143 298 C140.36 298 137.72 298 135 298 C135 300.64 135 303.28 135 306 C130.05 306 125.1 306 120 306 C120 308.31 120 310.62 120 313 C114.39 313 108.78 313 103 313 C103 315.97 103 318.94 103 322 C59.11 322 15.22 322 -30 322 C-30 319.03 -30 316.06 -30 313 C-35.61 313 -41.22 313 -47 313 C-47 310.69 -47 308.38 -47 306 C-48.60681641 306.01740234 -48.60681641 306.01740234 -50.24609375 306.03515625 C-51.64322743 306.04453299 -53.04036299 306.05363331 -54.4375 306.0625 C-55.14455078 306.07087891 -55.85160156 306.07925781 -56.58007812 306.08789062 C-58.38693559 306.09653588 -60.19387603 306.05220011 -62 306 C-63 305 -63 305 -63.0625 301.4375 C-63.041875 300.303125 -63.02125 299.16875 -63 298 C-65.31 298 -67.62 298 -70 298 C-70 295.36 -70 292.72 -70 290 C-72.64 290 -75.28 290 -78 290 C-78 287.69 -78 285.38 -78 283 C-80.64 283 -83.28 283 -86 283 C-87.59412284 279.81175432 -87.10174735 276.37103338 -87.0625 272.875 C-87.05798828 272.12089844 -87.05347656 271.36679687 -87.04882812 270.58984375 C-87.03703499 268.72652873 -87.01909942 266.86325445 -87 265 C-88.7015625 265.0309375 -88.7015625 265.0309375 -90.4375 265.0625 C-94 265 -94 265 -95 264 C-95.09543095 262.60856311 -95.12188575 261.21231633 -95.12025452 259.81761169 C-95.12162918 258.91592255 -95.12300385 258.0142334 -95.12442017 257.08522034 C-95.12082489 256.08828659 -95.11722961 255.09135284 -95.11352539 254.06420898 C-95.11367142 253.02043091 -95.11381744 251.97665283 -95.1139679 250.90124512 C-95.11326826 247.43284057 -95.10547353 243.96448897 -95.09765625 240.49609375 C-95.09579225 238.09855682 -95.09436826 235.7010195 -95.09336853 233.30348206 C-95.08954194 226.97904416 -95.07971046 220.65462906 -95.06866455 214.3302002 C-95.05845345 207.88224598 -95.05387156 201.43428809 -95.04882812 194.98632812 C-95.03808832 182.324209 -95.02120119 169.66210571 -95 157 C-97.64 157 -100.28 157 -103 157 C-103 139.18 -103 121.36 -103 103 C-100.36 103 -97.72 103 -95 103 C-95 100.03 -95 97.06 -95 94 C-90.545 93.505 -90.545 93.505 -86 93 C-86.2475 92.0409375 -86.2475 92.0409375 -86.5 91.0625 C-87.15523426 87.04919018 -87.28516502 83.05940788 -87 79 C-86.67 78.67 -86.34 78.34 -86 78 C-83.36 78 -80.72 78 -78 78 C-78 72.72 -78 67.44 -78 62 C-74.535 61.505 -74.535 61.505 -71 61 C-70.855625 59.865625 -70.71125 58.73125 -70.5625 57.5625 C-70 54 -70 54 -69 53 C-67.00041636 52.95919217 -64.99954746 52.95745644 -63 53 C-63 50.69 -63 48.38 -63 46 C-60.03 45.505 -60.03 45.505 -57 45 C-56.67 43.02 -56.34 41.04 -56 39 C-53.525 38.505 -53.525 38.505 -51 38 C-50.67 36.02 -50.34 34.04 -50 32 C-47.69 32 -45.38 32 -43 32 C-43 29.36 -43 26.72 -43 24 C-40.69 24 -38.38 24 -36 24 C-36.020625 22.865625 -36.04125 21.73125 -36.0625 20.5625 C-36 17 -36 17 -35 16 C-32.47403741 15.76346477 -29.96892793 15.57826308 -27.4375 15.4375 C-26.37112305 15.37272461 -26.37112305 15.37272461 -25.28320312 15.30664062 C-23.52238088 15.20028223 -21.7612168 15.09961154 -20 15 C-19.67 12.69 -19.34 10.38 -19 8 C-12.73 8 -6.46 8 0 8 C0 5.36 0 2.72 0 0 Z M-46 158 C-46 159.65 -46 161.3 -46 163 C-40.66995343 164.06600931 -33.04436182 165.52218091 -28 163 C-27.34 161.35 -26.68 159.7 -26 158 C-32.6 158 -39.2 158 -46 158 Z M101 158 C101.99 159.65 102.98 161.3 104 163 C106.78599571 163.38060051 108.93372751 163.47962905 111.6875 163.3125 C112.38939453 163.28994141 113.09128906 163.26738281 113.81445312 163.24414062 C115.5438833 163.18531647 117.27221438 163.09563389 119 163 C118.34 161.35 117.68 159.7 117 158 C111.72 158 106.44 158 101 158 Z M-61 166 C-61 167.98 -61 169.96 -61 172 C-57.04 172 -53.08 172 -49 172 C-48.67 170.02 -48.34 168.04 -48 166 C-52.29 166 -56.58 166 -61 166 Z M121 166 C121.33 167.98 121.66 169.96 122 172 C125.96 172.33 129.92 172.66 134 173 C134 170.69 134 168.38 134 166 C129.71 166 125.42 166 121 166 Z M-68 175 C-68 176.98 -68 178.96 -68 181 C-66.35 180.34 -64.7 179.68 -63 179 C-63 177.68 -63 176.36 -63 175 C-64.65 175 -66.3 175 -68 175 Z M135 175 C135.62533375 177.52363988 135.62533375 177.52363988 137 180 C139.54775306 180.89386164 139.54775306 180.89386164 142 181 C142 179.02 142 177.04 142 175 C139.69 175 137.38 175 135 175 Z M-76 182 C-76 205.1 -76 228.2 -76 252 C-73.69 252 -71.38 252 -69 252 C-69 228.9 -69 205.8 -69 182 C-71.31 182 -73.62 182 -76 182 Z M143 182 C143 205.1 143 228.2 143 252 C144.98 252 146.96 252 149 252 C149 228.9 149 205.8 149 182 C147.02 182 145.04 182 143 182 Z M136 253 C134.68737429 254.08552366 134.68737429 254.08552366 134.90234375 256.72265625 C134.91394531 257.82480469 134.92554688 258.92695313 134.9375 260.0625 C134.94652344 261.16722656 134.95554687 262.27195312 134.96484375 263.41015625 C134.97644531 264.26480469 134.98804688 265.11945313 135 266 C137.31 266 139.62 266 142 266 C142 261.71 142 257.42 142 253 C140.02 253 138.04 253 136 253 Z M-68 254 C-68 257.96 -68 261.92 -68 266 C-66.35 266 -64.7 266 -63 266 C-63 262.37 -63 258.74 -63 255 C-64.65 254.67 -66.3 254.34 -68 254 Z M-61 268 C-61 269.98 -61 271.96 -61 274 C-58.69 274 -56.38 274 -54 274 C-54.33 272.02 -54.66 270.04 -55 268 C-56.98 268 -58.96 268 -61 268 Z M127 269 C127 270.65 127 272.3 127 274 C129.31 274 131.62 274 134 274 C134 271.69 134 269.38 134 267 C131.64712386 267 129.20626776 268.24893012 127 269 Z M28 271 C28.33 271.66 28.66 272.32 29 273 C31.29141286 273.05384521 33.58318188 273.09272087 35.875 273.125 C37.15117187 273.14820313 38.42734375 273.17140625 39.7421875 273.1953125 C43.08593338 273.35641524 43.08593338 273.35641524 45 271 C39.39 271 33.78 271 28 271 Z M-53 275 C-53 277.31 -53 279.62 -53 282 C-47.72 282 -42.44 282 -37 282 C-37.33 279.69 -37.66 277.38 -38 275 C-42.95 275 -47.9 275 -53 275 Z M111 275 C110.34 277.31 109.68 279.62 109 282 C111.64590014 282.02684679 114.29153096 282.04676357 116.9375 282.0625 C117.69224609 282.07087891 118.44699219 282.07925781 119.22460938 282.08789062 C121.14994313 282.09652441 123.07535581 282.05224333 125 282 C125.33 281.67 125.66 281.34 126 281 C126 279.02 126 277.04 126 275 C121.05 275 116.1 275 111 275 Z M-35 283 C-35 284.98 -35 286.96 -35 289 C-27.08 289 -19.16 289 -11 289 C-11 287.35 -11 285.7 -11 284 C-12.02714661 282.7494687 -12.02714661 282.7494687 -14.22485352 282.88647461 C-15.18319092 282.89171143 -16.14152832 282.89694824 -17.12890625 282.90234375 C-18.16337891 282.90556641 -19.19785156 282.90878906 -20.26367188 282.91210938 C-21.35228516 282.92048828 -22.44089844 282.92886719 -23.5625 282.9375 C-24.65498047 282.94201172 -25.74746094 282.94652344 -26.87304688 282.95117188 C-29.58208495 282.96300174 -32.29101599 282.97948457 -35 283 Z M84 284 C84 285.65 84 287.3 84 289 C91.92 289 99.84 289 108 289 C108 287.02 108 285.04 108 283 C104.18751574 282.97112764 100.3750593 282.95324508 96.5625 282.9375 C95.47388672 282.92912109 94.38527344 282.92074219 93.26367188 282.91210938 C91.71196289 282.90727539 91.71196289 282.90727539 90.12890625 282.90234375 C89.17056885 282.89710693 88.21223145 282.89187012 87.22485352 282.88647461 C85.02714661 282.7494687 85.02714661 282.7494687 84 284 Z M0.1875 290.4375 C-1.22583618 290.49623291 -1.22583618 290.49623291 -2.66772461 290.55615234 C-6.65785362 290.38716589 -6.65785362 290.38716589 -10 292 C-10 293.65 -10 295.3 -10 297 C20.36 297 50.72 297 82 297 C82 295.02 82 293.04 82 291 C54.75890928 289.83738364 27.43960855 289.29970745 0.1875 290.4375 Z " fill="#A70108" transform="translate(216,74)"/>
<path d="M0 0 C0.33 0 0.66 0 1 0 C1 1.65 1 3.3 1 5 C6.94 5 12.88 5 19 5 C19.66 3.68 20.32 2.36 21 1 C22.65544807 -0.65544807 24.60449104 -0.13663456 26.8835144 -0.14717102 C27.940737 -0.15432632 28.99795959 -0.16148163 30.08721924 -0.16885376 C31.25710388 -0.17154266 32.42698853 -0.17423157 33.63232422 -0.17700195 C35.46873978 -0.18685875 35.46873978 -0.18685875 37.34225464 -0.19691467 C40.71007076 -0.21328629 44.0778238 -0.22488251 47.44566488 -0.2331202 C49.54811063 -0.23826516 51.65055193 -0.24434109 53.75299454 -0.25063133 C60.32627942 -0.26968927 66.89955301 -0.28391948 73.47286022 -0.2922433 C81.06961959 -0.30202101 88.66608799 -0.32835156 96.26274478 -0.36874419 C102.12858326 -0.3988673 107.99433815 -0.41370851 113.8602525 -0.41702431 C117.36652905 -0.41937909 120.87249498 -0.42839411 124.37868881 -0.45348549 C128.28885042 -0.48101504 132.19862671 -0.47694672 136.10888672 -0.4699707 C137.85764099 -0.48918579 137.85764099 -0.48918579 139.64172363 -0.50878906 C140.70458588 -0.50184525 141.76744812 -0.49490143 142.86251831 -0.48774719 C144.25017301 -0.49132972 144.25017301 -0.49132972 145.66586113 -0.49498463 C148.73576996 0.15602963 149.23187184 1.51016712 151 4 C153.87038052 4.29561076 156.33754745 4.37943016 159.1875 4.25 C159.93708984 4.23195312 160.68667969 4.21390625 161.45898438 4.1953125 C163.3065371 4.14824109 165.15343159 4.07649766 167 4 C168.31626692 7.61973402 169 10.09567131 169 14 C169.69867188 13.98839844 170.39734375 13.97679687 171.1171875 13.96484375 C172.48230469 13.95130859 172.48230469 13.95130859 173.875 13.9375 C174.77992188 13.92589844 175.68484375 13.91429687 176.6171875 13.90234375 C179 14 179 14 181 15 C181 12.69 181 10.38 181 8 C181.33 8 181.66 8 182 8 C182 10.64 182 13.28 182 16 C184.31 16 186.62 16 189 16 C189 16.33 189 16.66 189 17 C186.03 17.495 186.03 17.495 183 18 C183.33 18.99 183.66 19.98 184 21 C184.825 21.309375 185.65 21.61875 186.5 21.9375 C187.325 22.288125 188.15 22.63875 189 23 C190.34338094 26.42206424 190.12035046 29.97355682 190.11352539 33.60449219 C190.11367142 34.25856552 190.11381744 34.91263885 190.1139679 35.58653259 C190.11327341 37.74001426 190.10550283 39.89340852 190.09765625 42.046875 C190.09579042 43.54331414 190.09436729 45.03975388 190.09336853 46.53619385 C190.08955635 50.46858415 190.07973717 54.40093732 190.06866455 58.33331299 C190.05842249 62.34850563 190.05386492 66.3637043 190.04882812 70.37890625 C190.03811372 78.25262117 190.02105291 86.12630596 190 94 C191.98 94 193.96 94 196 94 C196 70.9 196 47.8 196 24 C196.33 24 196.66 24 197 24 C197 47.43 197 70.86 197 95 C192.38 95.33 187.76 95.66 183 96 C182.67 99.96 182.34 103.92 182 108 C184.31 108 186.62 108 189 108 C189 108.33 189 108.66 189 109 C186.69 109 184.38 109 182 109 C182 111.64 182 114.28 182 117 C179.36 117 176.72 117 174 117 C174 119.31 174 121.62 174 124 C173.67 124 173.34 124 173 124 C173 121.69 173 119.38 173 117 C168.05 117.33 163.1 117.66 158 118 C157.34 122.62 156.68 127.24 156 132 C152.37 132 148.74 132 145 132 C145 131.67 145 131.34 145 131 C148.3 131 151.6 131 155 131 C155 129.02 155 127.04 155 125 C143.615 125.495 143.615 125.495 132 126 C131.67 127.65 131.34 129.3 131 131 C134.63 131 138.26 131 142 131 C142 131.33 142 131.66 142 132 C131.14152955 133.22300098 120.30754478 133.14589473 109.3984375 133.1328125 C107.39279163 133.1334883 105.38714584 133.13446062 103.38150024 133.13571167 C99.18401304 133.1371804 94.9865472 133.1350639 90.7890625 133.13037109 C85.4887914 133.12472532 80.18857111 133.12801046 74.88830185 133.13382339 C53.57105209 133.15353949 32.29291971 133.13482964 11 132 C10.01 124.575 10.01 124.575 9 117 C4.05 117 -0.9 117 -6 117 C-6 119.31 -6 121.62 -6 124 C-6.33 124 -6.66 124 -7 124 C-7 121.69 -7 119.38 -7 117 C-9.64 117 -12.28 117 -15 117 C-15 114.36 -15 111.72 -15 109 C-17.31 109 -19.62 109 -22 109 C-22 104.38 -22 99.76 -22 95 C-24.64 95 -27.28 95 -30 95 C-30 71.57 -30 48.14 -30 24 C-29.67 24 -29.34 24 -29 24 C-29 47.1 -29 70.2 -29 94 C-26.69 94 -24.38 94 -22 94 C-22.07064667 93.42667938 -22.14129333 92.85335876 -22.21408081 92.26266479 C-23.00757321 85.2246829 -23.14542797 78.27309584 -23.1328125 71.1953125 C-23.13376923 69.99494354 -23.13472595 68.79457458 -23.13571167 67.55783081 C-23.13638884 65.03155464 -23.13456702 62.50527668 -23.13037109 59.97900391 C-23.1250258 56.14351428 -23.13032709 52.30814224 -23.13671875 48.47265625 C-23.1360577 46.00520808 -23.13477599 43.53775998 -23.1328125 41.0703125 C-23.13483673 39.93868683 -23.13686096 38.80706116 -23.13894653 37.6411438 C-23.11791243 30.38115384 -22.71422876 23.2246555 -22 16 C-19.69 16 -17.38 16 -15 16 C-15 13.36 -15 10.72 -15 8 C-14.67 8 -14.34 8 -14 8 C-14 9.98 -14 11.96 -14 14 C-10.04 14 -6.08 14 -2 14 C-1.34 9.38 -0.68 4.76 0 0 Z M-21 17 C-21 18.98 -21 20.96 -21 23 C-19.35 22.34 -17.7 21.68 -16 21 C-16 19.68 -16 18.36 -16 17 C-17.65 17 -19.3 17 -21 17 Z M-21 96 C-21 99.96 -21 103.92 -21 108 C-19.35 108 -17.7 108 -16 108 C-16 104.37 -16 100.74 -16 97 C-17.65 96.67 -19.3 96.34 -21 96 Z M-14 110 C-14 111.98 -14 113.96 -14 116 C-11.69 116 -9.38 116 -7 116 C-7.33 114.02 -7.66 112.04 -8 110 C-9.98 110 -11.96 110 -14 110 Z M174 111 C174 112.65 174 114.3 174 116 C176.31 116 178.62 116 181 116 C181 113.69 181 111.38 181 109 C178.64712386 109 176.20626776 110.24893012 174 111 Z M75 113 C75.33 113.66 75.66 114.32 76 115 C78.29141286 115.05384521 80.58318188 115.09272087 82.875 115.125 C84.15117187 115.14820313 85.42734375 115.17140625 86.7421875 115.1953125 C90.08593338 115.35641524 90.08593338 115.35641524 92 113 C86.39 113 80.78 113 75 113 Z M12 125 C12 126.98 12 128.96 12 131 C19.92 131 27.84 131 36 131 C36 129.35 36 127.7 36 126 C34.97285339 124.7494687 34.97285339 124.7494687 32.77514648 124.88647461 C31.81680908 124.89171143 30.85847168 124.89694824 29.87109375 124.90234375 C28.83662109 124.90556641 27.80214844 124.90878906 26.73632812 124.91210938 C25.64771484 124.92048828 24.55910156 124.92886719 23.4375 124.9375 C22.34501953 124.94201172 21.25253906 124.94652344 20.12695312 124.95117188 C17.41791505 124.96300174 14.70898401 124.97948457 12 125 Z " fill="#0A0B0B" transform="translate(169,232)"/>
<path d="M0 0 C53.46 0 106.92 0 162 0 C162 2.97 162 5.94 162 9 C167.61 9 173.22 9 179 9 C179 11.64 179 14.28 179 17 C184.28 17 189.56 17 195 17 C195 20.63 195 24.26 195 28 C197.97 28 200.94 28 204 28 C204 30.64 204 33.28 204 36 C206.31 36 208.62 36 211 36 C211 35.34 211 34.68 211 34 C211.66 34.33 212.32 34.66 213 35 C213.02349296 44.32974262 213.0410986 53.65947457 213.05181217 62.98924065 C213.05696216 67.32454369 213.06391025 71.65982605 213.07543945 75.99511719 C213.12734052 96.02380853 213.02887544 115.99199469 212 136 C209.36 136 206.72 136 204 136 C204 141.94 204 147.88 204 154 C201.36 154 198.72 154 196 154 C196 156.31 196 158.62 196 161 C193.36 161 190.72 161 188 161 C188 163.64 188 166.28 188 169 C185.36 169 182.72 169 180 169 C180 171.64 180 174.28 180 177 C175.05 177 170.1 177 165 177 C165 179.31 165 181.62 165 184 C159.39 184 153.78 184 148 184 C148 186.97 148 189.94 148 193 C104.11 193 60.22 193 15 193 C15 190.03 15 187.06 15 184 C9.39 184 3.78 184 -2 184 C-2 181.69 -2 179.38 -2 177 C-3.60681641 177.01740234 -3.60681641 177.01740234 -5.24609375 177.03515625 C-6.64322743 177.04453299 -8.04036299 177.05363331 -9.4375 177.0625 C-10.14455078 177.07087891 -10.85160156 177.07925781 -11.58007812 177.08789062 C-13.38693559 177.09653588 -15.19387603 177.05220011 -17 177 C-18 176 -18 176 -18.0625 172.4375 C-18.041875 171.303125 -18.02125 170.16875 -18 169 C-20.31 169 -22.62 169 -25 169 C-25 166.36 -25 163.72 -25 161 C-27.64 161 -30.28 161 -33 161 C-33 158.69 -33 156.38 -33 154 C-35.64 154 -38.28 154 -41 154 C-42.59412284 150.81175432 -42.10174735 147.37103338 -42.0625 143.875 C-42.05798828 143.12089844 -42.05347656 142.36679687 -42.04882812 141.58984375 C-42.03703499 139.72652873 -42.01909942 137.86325445 -42 136 C-44.31 136 -46.62 136 -49 136 C-49 100.03 -49 64.06 -49 27 C-46.36 27 -43.72 27 -41 27 C-41 24.69 -41 22.38 -41 20 C-38.03 20 -35.06 20 -32 20 C-32 19.01 -32 18.02 -32 17 C-26.72 17 -21.44 17 -16 17 C-16 14.03 -16 11.06 -16 8 C-10.72 8 -5.44 8 0 8 C0 5.36 0 2.72 0 0 Z M-2 29 C-2 31.64 -2 34.28 -2 37 C-6.95 37 -11.9 37 -17 37 C-17 39.64 -17 42.28 -17 45 C-19.31 45 -21.62 45 -24 45 C-24 47.64 -24 50.28 -24 53 C-26.64 53 -29.28 53 -32 53 C-32 76.43 -32 99.86 -32 124 C-29.36 124 -26.72 124 -24 124 C-24 128.62 -24 133.24 -24 138 C-21.69 138 -19.38 138 -17 138 C-17 140.64 -17 143.28 -17 146 C-14.36 146 -11.72 146 -9 146 C-9 148.31 -9 150.62 -9 153 C-3.06 153 2.88 153 9 153 C9 155.64 9 158.28 9 161 C17.58 161.33 26.16 161.66 35 162 C35 163.98 35 165.96 35 168 C65.36 168 95.72 168 127 168 C127.33 166.02 127.66 164.04 128 162 C136.68761489 161.34344611 145.28217363 160.83688059 154 161 C154 158.36 154 155.72 154 153 C159.94 153 165.88 153 172 153 C172 150.69 172 148.38 172 146 C174.64 146 177.28 146 180 146 C180 143.36 180 140.72 180 138 C182.31 138 184.62 138 187 138 C187 133.38 187 128.76 187 124 C189.64 124 192.28 124 195 124 C195 100.57 195 77.14 195 53 C192.69 53 190.38 53 188 53 C187.67 50.36 187.34 47.72 187 45 C184.69 45 182.38 45 180 45 C180 42.36 180 39.72 180 37 C175.05 37 170.1 37 165 37 C165 35.68 165 34.36 165 33 C164.34 33 163.68 33 163 33 C162.67 31.68 162.34 30.36 162 29 C107.88 29 53.76 29 -2 29 Z " fill="#D1D1D1" transform="translate(171,203)"/>
<path d="M0 0 C40.41126678 -0.18976538 40.41126678 -0.18976538 59.5625 0.4375 C60.8201416 0.47673584 62.0777832 0.51597168 63.37353516 0.55639648 C71.87031083 0.87031083 71.87031083 0.87031083 73 2 C73.04092937 4.33297433 73.04241723 6.66705225 73 9 C73.556875 8.98839844 74.11375 8.97679688 74.6875 8.96484375 C79.89778343 8.90323567 84.8437951 9.25000656 90 10 C91.20568053 14.67201205 91.09382426 19.21496292 91 24 C93.64 24 96.28 24 99 24 C99 28.62 99 33.24 99 38 C101.64 38 104.28 38 107 38 C107 45.59 107 53.18 107 61 C61.13 61 15.26 61 -32 61 C-32.33 63.31 -32.66 65.62 -33 68 C-34 69 -34 69 -35.94946289 69.11352539 C-36.7821167 69.10828857 -37.61477051 69.10305176 -38.47265625 69.09765625 C-39.37177734 69.09443359 -40.27089844 69.09121094 -41.19726562 69.08789062 C-42.61555664 69.07532227 -42.61555664 69.07532227 -44.0625 69.0625 C-45.01189453 69.05798828 -45.96128906 69.05347656 -46.93945312 69.04882812 C-49.29303065 69.0370011 -51.64648477 69.02052025 -54 69 C-54 71.64 -54 74.28 -54 77 C-45.09 77 -36.18 77 -27 77 C-26.67 74.69 -26.34 72.38 -26 70 C-16.1 70 -6.2 70 4 70 C4.04585216 75.66019477 4.08569491 81.31974811 4.10986328 86.97998047 C4.11993582 88.90643494 4.13359443 90.83287408 4.15087891 92.75927734 C4.17507241 95.52445252 4.18647036 98.289426 4.1953125 101.0546875 C4.20563507 101.9193161 4.21595764 102.7839447 4.22659302 103.67477417 C4.22699106 105.78453521 4.12265243 107.89380718 4 110 C2 112 2 112 0.12060547 112.22705078 C-0.62302246 112.21657715 -1.36665039 112.20610352 -2.1328125 112.1953125 C-2.93847656 112.18886719 -3.74414062 112.18242187 -4.57421875 112.17578125 C-5.41597656 112.15902344 -6.25773437 112.14226562 -7.125 112.125 C-7.97449219 112.11597656 -8.82398438 112.10695313 -9.69921875 112.09765625 C-11.79959884 112.07405647 -13.89983444 112.03818483 -16 112 C-16 114.31 -16 116.62 -16 119 C-18.97 119 -21.94 119 -25 119 C-25 108.11 -25 97.22 -25 86 C-28.3 86 -31.6 86 -35 86 C-35 96.56 -35 107.12 -35 118 C-40.41704318 120.70852159 -41.8167965 121.37277345 -47.375 121.1875 C-48.43460938 121.16042969 -49.49421875 121.13335937 -50.5859375 121.10546875 C-51.38257813 121.07066406 -52.17921875 121.03585938 -53 121 C-53 122.98 -53 124.96 -53 127 C-55.64 127 -58.28 127 -61 127 C-61.33 116.44 -61.66 105.88 -62 95 C-64.64 94.67 -67.28 94.34 -70 94 C-69.98839844 95.11375 -69.97679687 96.2275 -69.96484375 97.375 C-69.93367984 101.4133969 -69.94417053 105.45042062 -69.97900391 109.48876953 C-69.99261994 111.11731055 -70.00046016 112.74591409 -70.00146484 114.37451172 C-70.0113215 116.56409825 -70.06202351 118.74887574 -70.125 120.9375 C-70.14820313 122.22527344 -70.17140625 123.51304687 -70.1953125 124.83984375 C-71 128 -71 128 -73.96875 129.8046875 C-74.9690625 130.19914063 -75.969375 130.59359375 -77 131 C-78.40466953 133.05093145 -78.40466953 133.05093145 -79 135 C-81.31 135 -83.62 135 -86 135 C-86 127.08 -86 119.16 -86 111 C-88.64 111 -91.28 111 -94 111 C-93.99476318 111.99443115 -93.98952637 112.9888623 -93.98413086 114.01342773 C-93.96607959 117.69033921 -93.95456754 121.36724675 -93.94506836 125.04418945 C-93.94002843 126.63794614 -93.9331965 128.23169819 -93.92456055 129.82543945 C-93.91248001 132.11150253 -93.90676845 134.39750467 -93.90234375 136.68359375 C-93.89718246 137.40026718 -93.89202118 138.11694061 -93.88670349 138.85533142 C-93.88650737 140.57063672 -93.93807993 142.28581266 -94 144 C-94.33 144.33 -94.66 144.66 -95 145 C-97.64 145 -100.28 145 -103 145 C-103 130.81 -103 116.62 -103 102 C-100.36 102 -97.72 102 -95 102 C-95 99.36 -95 96.72 -95 94 C-89.72 94 -84.44 94 -79 94 C-79.33 91.69 -79.66 89.38 -80 87 C-81.98 86.67 -83.96 86.34 -86 86 C-86 84.02 -86 82.04 -86 80 C-83.69 80 -81.38 80 -79 80 C-78.67 81.98 -78.34 83.96 -78 86 C-72.72 86 -67.44 86 -62 86 C-62 83.36 -62 80.72 -62 78 C-66.95 78 -71.9 78 -77 78 C-77 72.72 -77 67.44 -77 62 C-74.36 61.67 -71.72 61.34 -69 61 C-69 58.69 -69 56.38 -69 54 C-66.03 53.505 -66.03 53.505 -63 53 C-62.67 51.35 -62.34 49.7 -62 48 C-59.69 47.34 -57.38 46.68 -55 46 C-54.896875 45.236875 -54.79375 44.47375 -54.6875 43.6875 C-54 41 -54 41 -52.5 39.5625 C-50.32590827 37.29782111 -50.33810251 35.04292263 -50 32 C-47.36 32 -44.72 32 -42 32 C-42 30.02 -42 28.04 -42 26 C-38.04 25.505 -38.04 25.505 -34 25 C-34 22.69 -34 20.38 -34 18 C-29.05 18 -24.1 18 -19 18 C-19 15.03 -19 12.06 -19 9 C-12.73 9 -6.46 9 0 9 C0 6.03 0 3.06 0 0 Z " fill="#D0010B" transform="translate(217,75)"/>
<path d="M0 0 C5.28 0 10.56 0 16 0 C16 2.64 16 5.28 16 8 C13.36 8 10.72 8 8 8 C8 8.99 8 9.98 8 11 C5.36 11 2.72 11 0 11 C0.01160156 11.556875 0.02320313 12.11375 0.03515625 12.6875 C0.09676433 17.89778343 -0.25000656 22.8437951 -1 28 C-3.64 28 -6.28 28 -9 28 C-9 55.39 -9 82.78 -9 111 C-6.03 111 -3.06 111 0 111 C0 116.61 0 122.22 0 128 C2.64 128 5.28 128 8 128 C8 130.64 8 133.28 8 136 C10.31 136 12.62 136 15 136 C15 138.64 15 141.28 15 144 C16.98 144 18.96 144 21 144 C21 146.31 21 148.62 21 151 C26.61 151 32.22 151 38 151 C38 153.64 38 156.28 38 159 C45.59 159 53.18 159 61 159 C61 161.64 61 164.28 61 167 C96.64 167 132.28 167 169 167 C169 164.36 169 161.72 169 159 C175.27 159 181.54 159 188 159 C188 156.36 188 153.72 188 151 C194.27 151 200.54 151 207 151 C207 148.69 207 146.38 207 144 C208.65 144 210.3 144 212 144 C212 141.36 212 138.72 212 136 C214.31 136 216.62 136 219 136 C219 133.36 219 130.72 219 128 C221.64 128 224.28 128 227 128 C227 122.39 227 116.78 227 111 C229.97 111 232.94 111 236 111 C236 83.61 236 56.22 236 28 C233.03 28 230.06 28 227 28 C227 22.39 227 16.78 227 11 C229.97 11 232.94 11 236 11 C236 13.64 236 16.28 236 19 C238.31 19 240.62 19 243 19 C243 18.34 243 17.68 243 17 C243.66 17.33 244.32 17.66 245 18 C245.02349296 27.32974262 245.0410986 36.65947457 245.05181217 45.98924065 C245.05696216 50.32454369 245.06391025 54.65982605 245.07543945 58.99511719 C245.12734052 79.02380853 245.02887544 98.99199469 244 119 C241.36 119 238.72 119 236 119 C236 124.94 236 130.88 236 137 C233.36 137 230.72 137 228 137 C228 139.31 228 141.62 228 144 C225.36 144 222.72 144 220 144 C220 146.64 220 149.28 220 152 C217.36 152 214.72 152 212 152 C212 154.64 212 157.28 212 160 C207.05 160 202.1 160 197 160 C197 162.31 197 164.62 197 167 C191.39 167 185.78 167 180 167 C180 169.97 180 172.94 180 176 C136.11 176 92.22 176 47 176 C47 173.03 47 170.06 47 167 C41.39 167 35.78 167 30 167 C30 164.69 30 162.38 30 160 C28.39318359 160.01740234 28.39318359 160.01740234 26.75390625 160.03515625 C25.35677257 160.04453299 23.95963701 160.05363331 22.5625 160.0625 C21.85544922 160.07087891 21.14839844 160.07925781 20.41992188 160.08789062 C18.61306441 160.09653588 16.80612397 160.05220011 15 160 C14 159 14 159 13.9375 155.4375 C13.958125 154.303125 13.97875 153.16875 14 152 C11.69 152 9.38 152 7 152 C7 149.36 7 146.72 7 144 C4.36 144 1.72 144 -1 144 C-1 141.69 -1 139.38 -1 137 C-3.64 137 -6.28 137 -9 137 C-10.59412284 133.81175432 -10.10174735 130.37103338 -10.0625 126.875 C-10.05798828 126.12089844 -10.05347656 125.36679687 -10.04882812 124.58984375 C-10.03703499 122.72652873 -10.01909942 120.86325445 -10 119 C-12.31 119 -14.62 119 -17 119 C-17 83.03 -17 47.06 -17 10 C-14.36 10 -11.72 10 -9 10 C-9 7.69 -9 5.38 -9 3 C-6.03 3 -3.06 3 0 3 C0 2.01 0 1.02 0 0 Z " fill="#8D8D8D" transform="translate(139,220)"/>
<path d="M0 0 C4.23176701 -0.02499226 8.46349323 -0.04299623 12.6953125 -0.05493164 C14.13054148 -0.05991507 15.56576551 -0.06670425 17.00097656 -0.07543945 C25.05100017 -0.12315577 33.00283763 -0.06861751 41 1 C41 3.64 41 6.28 41 9 C37.7 9 34.4 9 31 9 C31.00523682 10.02359619 31.01047363 11.04719238 31.01586914 12.10180664 C31.03406262 15.92422602 31.04548416 19.74664162 31.05493164 23.5690918 C31.05993919 25.21883794 31.06674716 26.8685797 31.07543945 28.51831055 C31.08766254 30.89893685 31.09326422 33.27950413 31.09765625 35.66015625 C31.10281754 36.38960953 31.10797882 37.11906281 31.11329651 37.87062073 C31.11337204 38.57081833 31.11344757 39.27101593 31.11352539 39.99243164 C31.115746 40.5986586 31.11796661 41.20488556 31.12025452 41.82948303 C30.94989684 44.90433002 30.43551592 47.95138857 30 51 C63.99 51 97.98 51 133 51 C133 53.64 133 56.28 133 59 C82.51 59 32.02 59 -20 59 C-20 61.64 -20 64.28 -20 67 C-25.28 67 -30.56 67 -36 67 C-36 69.97 -36 72.94 -36 76 C-41.28 76 -46.56 76 -52 76 C-52 76.99 -52 77.98 -52 79 C-54.97 79 -57.94 79 -61 79 C-61 81.31 -61 83.62 -61 86 C-63.64 86 -66.28 86 -69 86 C-69 121.64 -69 157.28 -69 194 C-69.33 194 -69.66 194 -70 194 C-70 158.69 -70 123.38 -70 87 C-72.64 87 -75.28 87 -78 87 C-78 69.18 -78 51.36 -78 33 C-77.67 33 -77.34 33 -77 33 C-77 47.19 -77 61.38 -77 76 C-74.36 75.67 -71.72 75.34 -69 75 C-68.67 64.11 -68.34 53.22 -68 42 C-65.36 42 -62.72 42 -60 42 C-58.85297718 47.25081557 -59.06911434 52.06516538 -59.4375 57.375 C-59.48970703 58.20644531 -59.54191406 59.03789062 -59.59570312 59.89453125 C-59.72438731 61.93008108 -59.86135407 63.96510441 -60 66 C-56.55724918 65.69654278 -56.55724918 65.69654278 -53 65 C-51.28288757 62.55503957 -51.28288757 62.55503957 -50 60 C-48.02 59.505 -48.02 59.505 -46 59 C-45.34 47.78 -44.68 36.56 -44 25 C-41.36 25 -38.72 25 -36 25 C-35 26 -35 26 -34.88647461 29.05102539 C-34.88663366 30.39991271 -34.89232388 31.74880614 -34.90234375 33.09765625 C-34.9037587 33.80651474 -34.90517365 34.51537323 -34.90663147 35.24571228 C-34.91224557 37.51801712 -34.92480037 39.79022475 -34.9375 42.0625 C-34.94251319 43.59960796 -34.94707641 45.13671745 -34.95117188 46.67382812 C-34.96221958 50.44925642 -34.97949359 54.22461171 -35 58 C-32.36 58 -29.72 58 -27 58 C-27 56.02 -27 54.04 -27 52 C-26.20335937 51.95101562 -25.40671875 51.90203125 -24.5859375 51.8515625 C-23.52632812 51.77679688 -22.46671875 51.70203125 -21.375 51.625 C-20.33085937 51.55539063 -19.28671875 51.48578125 -18.2109375 51.4140625 C-14.46646156 51.03581962 -14.46646156 51.03581962 -9 49 C-9 38.44 -9 27.88 -9 17 C-5.7 17 -2.4 17 1 17 C1 27.89 1 38.78 1 50 C3.97 50 6.94 50 10 50 C10 47.69 10 45.38 10 43 C11.28777344 42.93941406 12.57554687 42.87882812 13.90234375 42.81640625 C15.58074159 42.73201753 17.25912636 42.6473687 18.9375 42.5625 C19.78763672 42.52318359 20.63777344 42.48386719 21.51367188 42.44335938 C22.32255859 42.40146484 23.13144531 42.35957031 23.96484375 42.31640625 C24.7137085 42.27974854 25.46257324 42.24309082 26.23413086 42.20532227 C28.02461326 42.18228937 28.02461326 42.18228937 29 41 C29.16029688 38.04470496 29.25957328 35.11017543 29.31640625 32.15234375 C29.3475779 30.82270348 29.3475779 30.82270348 29.37937927 29.46620178 C29.444974 26.623383 29.50380552 23.78046883 29.5625 20.9375 C29.6056758 19.01496394 29.64928978 17.09243766 29.69335938 15.16992188 C29.80149336 10.44671107 29.90049247 5.72343208 30 1 C20.1 1 10.2 1 0 1 C0 0.67 0 0.34 0 0 Z " fill="#A50108" transform="translate(191,144)"/>
<path d="M0 0 C53.46 0 106.92 0 162 0 C162 2.97 162 5.94 162 9 C167.61 9 173.22 9 179 9 C179 11.64 179 14.28 179 17 C184.28 17 189.56 17 195 17 C195 20.63 195 24.26 195 28 C192.36 28 189.72 28 187 28 C187 27.01 187 26.02 187 25 C181.72 24.67 176.44 24.34 171 24 C171 21.69 171 19.38 171 17 C165.06 17 159.12 17 153 17 C153 14.36 153 11.72 153 9 C104.49 9 55.98 9 6 9 C6 11.64 6 14.28 6 17 C-1.26 17 -8.52 17 -16 17 C-16 14.03 -16 11.06 -16 8 C-10.72 8 -5.44 8 0 8 C0 5.36 0 2.72 0 0 Z " fill="#A49B9B" transform="translate(171,203)"/>
<path d="M0 0 C0.9075 0.00257813 1.815 0.00515625 2.75 0.0078125 C4.11125 0.00394531 4.11125 0.00394531 5.5 0 C7.75 0.1328125 7.75 0.1328125 8.75 1.1328125 C8.79092937 3.46578683 8.79241723 5.79986475 8.75 8.1328125 C11.06 8.1328125 13.37 8.1328125 15.75 8.1328125 C15.75 10.4428125 15.75 12.7528125 15.75 15.1328125 C18.39 15.1328125 21.03 15.1328125 23.75 15.1328125 C23.77526563 22.94734002 23.79283105 30.76185708 23.80493164 38.57641602 C23.80997383 41.23722731 23.81680736 43.89803582 23.82543945 46.55883789 C23.83751009 50.37386766 23.84322929 54.18886094 23.84765625 58.00390625 C23.85281754 59.20180283 23.85797882 60.3996994 23.86329651 61.63389587 C23.86340981 63.28549461 23.86340981 63.28549461 23.86352539 64.97045898 C23.865746 65.94530746 23.86796661 66.92015594 23.87025452 67.92454529 C23.75 70.1328125 23.75 70.1328125 22.75 71.1328125 C20.41702567 71.17374187 18.08294775 71.17522973 15.75 71.1328125 C15.770625 72.2671875 15.79125 73.4015625 15.8125 74.5703125 C15.75 78.1328125 15.75 78.1328125 14.75 79.1328125 C11.88732433 79.20606418 9.049281 79.22519455 6.1875 79.1953125 C5.38119141 79.19080078 4.57488281 79.18628906 3.74414062 79.18164062 C1.74606244 79.16981768 -0.25197783 79.15188164 -2.25 79.1328125 C-3.72741782 76.17797685 -3.38873544 73.18399198 -3.37939453 69.94506836 C-3.38114685 69.20511124 -3.38289917 68.46515411 -3.38470459 67.70277405 C-3.38911457 65.25104443 -3.38618841 62.79938663 -3.3828125 60.34765625 C-3.38348571 58.64897142 -3.38445588 56.95028668 -3.38571167 55.25160217 C-3.38718743 51.6897795 -3.38503773 48.12798188 -3.38037109 44.56616211 C-3.37466955 39.99036386 -3.37795627 35.4146242 -3.38394356 30.83882809 C-3.38754877 27.33109593 -3.38641085 23.82337778 -3.38381577 20.31564522 C-3.38314661 18.62786413 -3.38397453 16.94008179 -3.38629532 15.25230217 C-3.38882166 12.8985543 -3.38498174 10.54490277 -3.37939453 8.19116211 C-3.38141876 7.48724335 -3.38344299 6.78332458 -3.38552856 6.05807495 C-3.35962803 0.19831138 -3.35962803 0.19831138 0 0 Z " fill="#959595" transform="translate(393.25,246.8671875)"/>
<path d="M0 0 C3.3 0 6.6 0 10 0 C10 26.07 10 52.14 10 79 C4.39 79 -1.22 79 -7 79 C-8 78 -8 78 -8.0625 74.4375 C-8.041875 73.303125 -8.02125 72.16875 -8 71 C-10.64 71 -13.28 71 -16 71 C-16 52.52 -16 34.04 -16 15 C-13.36 15 -10.72 15 -8 15 C-8 12.69 -8 10.38 -8 8 C-4.535 7.505 -4.535 7.505 -1 7 C-0.67 4.69 -0.34 2.38 0 0 Z " fill="#949494" transform="translate(104,247)"/>
<path d="M0 0 C2.97 0 5.94 0 9 0 C9 2.64 9 5.28 9 8 C11.31 8 13.62 8 16 8 C16 7.34 16 6.68 16 6 C16.66 6.33 17.32 6.66 18 7 C18.02349296 16.32974262 18.0410986 25.65947457 18.05181217 34.98924065 C18.05696216 39.32454369 18.06391025 43.65982605 18.07543945 47.99511719 C18.12734052 68.02380853 18.02887544 87.99199469 17 108 C14.36 108 11.72 108 9 108 C9 113.94 9 119.88 9 126 C6.36 126 3.72 126 1 126 C1 128.31 1 130.62 1 133 C-1.97 133 -4.94 133 -8 133 C-8 135.31 -8 137.62 -8 140 C-10.64 140 -13.28 140 -16 140 C-16 142.64 -16 145.28 -16 148 C-20.95 148 -25.9 148 -31 148 C-31 149.65 -31 151.3 -31 153 C-32.32 153 -33.64 153 -35 153 C-35 151.68 -35 150.36 -35 149 C-36.32 148.67 -37.64 148.34 -39 148 C-39 145.36 -39 142.72 -39 140 C-32.73 140 -26.46 140 -20 140 C-20 137.69 -20 135.38 -20 133 C-18.35 133 -16.7 133 -15 133 C-15 130.36 -15 127.72 -15 125 C-12.69 125 -10.38 125 -8 125 C-8 122.36 -8 119.72 -8 117 C-5.36 117 -2.72 117 0 117 C0 111.39 0 105.78 0 100 C2.97 100 5.94 100 9 100 C9 72.61 9 45.22 9 17 C6.03 17 3.06 17 0 17 C0 11.39 0 5.78 0 0 Z " fill="#969696" transform="translate(366,231)"/>
<path d="M0 0 C13.2 0 26.4 0 40 0 C39.67 1.65 39.34 3.3 39 5 C36.05868109 5.98043964 34.17498335 6.11621202 31.11328125 6.09765625 C30.17548828 6.09443359 29.23769531 6.09121094 28.27148438 6.08789062 C27.29501953 6.07951172 26.31855469 6.07113281 25.3125 6.0625 C24.32443359 6.05798828 23.33636719 6.05347656 22.31835938 6.04882812 C19.87884526 6.03704303 17.43945311 6.02059011 15 6 C15 8.64 15 11.28 15 14 C10.71 14 6.42 14 2 14 C2 16.64 2 19.28 2 22 C-4.27 22 -10.54 22 -17 22 C-17 24.64 -17 27.28 -17 30 C-20.63 30 -24.26 30 -28 30 C-28 32.31 -28 34.62 -28 37 C-30.97 37 -33.94 37 -37 37 C-37 39.31 -37 41.62 -37 44 C-39.97 44 -42.94 44 -46 44 C-46 46.31 -46 48.62 -46 51 C-48.97 51 -51.94 51 -55 51 C-55 53.64 -55 56.28 -55 59 C-56.134375 59.37125 -57.26875 59.7425 -58.4375 60.125 C-60.3814131 60.86637873 -60.3814131 60.86637873 -62 62 C-63.05749557 65.08369887 -63.05749557 65.08369887 -63 68 C-65.64 68 -68.28 68 -71 68 C-71 70.64 -71 73.28 -71 76 C-73.31 76 -75.62 76 -78 76 C-78 70.72 -78 65.44 -78 60 C-75.36 59.67 -72.72 59.34 -70 59 C-70 56.69 -70 54.38 -70 52 C-67.03 51.505 -67.03 51.505 -64 51 C-63.67 49.35 -63.34 47.7 -63 46 C-60.69 45.34 -58.38 44.68 -56 44 C-55.896875 43.236875 -55.79375 42.47375 -55.6875 41.6875 C-55 39 -55 39 -53.5 37.5625 C-51.32590827 35.29782111 -51.33810251 33.04292263 -51 30 C-48.36 30 -45.72 30 -43 30 C-43 28.02 -43 26.04 -43 24 C-39.04 23.505 -39.04 23.505 -35 23 C-35 20.69 -35 18.38 -35 16 C-30.05 16 -25.1 16 -20 16 C-20 13.03 -20 10.06 -20 7 C-13.73 6.67 -7.46 6.34 -1 6 C-0.67 4.02 -0.34 2.04 0 0 Z " fill="#F80A1A" transform="translate(218,77)"/>
<path d="M0 0 C12.21 0 24.42 0 37 0 C37 13.86 37 27.72 37 42 C25.12 42 13.24 42 1 42 C0.505 21.21 0.505 21.21 0 0 Z " fill="#CF000A" transform="translate(232,145)"/>
<path d="M0 0 C6.6 0 13.2 0 20 0 C22 2 22 2 22.125 5.125 C22.08375 6.07375 22.0425 7.0225 22 8 C24.31 8.33 26.62 8.66 29 9 C29 19.89 29 30.78 29 42 C19.40227947 43.19971507 9.67241209 43 0 43 C0 28.81 0 14.62 0 0 Z " fill="#CD010A" transform="translate(279,144)"/>
<path d="M0 0 C47.19 0 94.38 0 143 0 C143 2.64 143 5.28 143 8 C95.81 8 48.62 8 0 8 C0 5.36 0 2.72 0 0 Z " fill="#520102" transform="translate(181,195)"/>
<path d="M0 0 C8.25 0 16.5 0 25 0 C25 14.19 25 28.38 25 43 C12 43 12 43 0 42 C0 28.14 0 14.28 0 0 Z " fill="#CF010B" transform="translate(316,153)"/>
<path d="M0 0 C4.62 0 9.24 0 14 0 C14 1.98 14 3.96 14 6 C15.32 6 16.64 6 18 6 C18 17.22 18 28.44 18 40 C16.68 40 15.36 40 14 40 C14 41.98 14 43.96 14 46 C9.38 46 4.76 46 0 46 C0 44.02 0 42.04 0 40 C-1.65 40 -3.3 40 -5 40 C-5 28.78 -5 17.56 -5 6 C-3.35 6 -1.7 6 0 6 C0 4.02 0 2.04 0 0 Z " fill="#5CF6F6" transform="translate(300,271)"/>
<path d="M0 0 C4.62 0 9.24 0 14 0 C14 1.98 14 3.96 14 6 C15.65 6 17.3 6 19 6 C19 17.22 19 28.44 19 40 C17.35 40 15.7 40 14 40 C14 41.98 14 43.96 14 46 C9.38 46 4.76 46 0 46 C0 44.02 0 42.04 0 40 C-1.32 40 -2.64 40 -4 40 C-4 28.78 -4 17.56 -4 6 C-2.68 6 -1.36 6 0 6 C0 4.02 0 2.04 0 0 Z " fill="#5AF9FA" transform="translate(191,271)"/>
<path d="M0 0 C2.97 0 5.94 0 9 0 C9.33 2.64 9.66 5.28 10 8 C12.97 8.495 12.97 8.495 16 9 C16 11.64 16 14.28 16 17 C17.134375 16.979375 18.26875 16.95875 19.4375 16.9375 C23 17 23 17 24 18 C24.08726223 19.78071246 24.10699041 21.5648314 24.09765625 23.34765625 C24.09443359 24.42724609 24.09121094 25.50683594 24.08789062 26.61914062 C24.07951172 27.75544922 24.07113281 28.89175781 24.0625 30.0625 C24.05798828 31.20267578 24.05347656 32.34285156 24.04882812 33.51757812 C24.03699747 36.34510351 24.0205141 39.1725264 24 42 C20.535 42.495 20.535 42.495 17 43 C16.67 45.64 16.34 48.28 16 51 C12.625 51.1875 12.625 51.1875 9 51 C7 48 7 48 7 44 C4.69 43.67 2.38 43.34 0 43 C0 28.81 0 14.62 0 0 Z " fill="#CE010A" transform="translate(350,160)"/>
<path d="M0 0 C6.27 0 12.54 0 19 0 C19 10.56 19 21.12 19 32 C13.58295682 34.70852159 12.1832035 35.37277345 6.625 35.1875 C5.56539062 35.16042969 4.50578125 35.13335937 3.4140625 35.10546875 C2.61742187 35.07066406 1.82078125 35.03585938 1 35 C1 36.98 1 38.96 1 41 C-1.64 41 -4.28 41 -7 41 C-7.33 30.11 -7.66 19.22 -8 8 C-5.36 8 -2.72 8 0 8 C0 5.36 0 2.72 0 0 Z " fill="#D0010A" transform="translate(163,161)"/>
<path d="M0 0 C5.61 0 11.22 0 17 0 C17 3.3 17 6.6 17 10 C18.98 10 20.96 10 23 10 C23 23.2 23 36.4 23 50 C18.71 50 14.42 50 10 50 C10.33 47.69 10.66 45.38 11 43 C2.09 43 -6.82 43 -16 43 C-16 40.03 -16 37.06 -16 34 C-13.69 34.33 -11.38 34.66 -9 35 C-8.34 36.98 -7.68 38.96 -7 41 C-4.69 41.33 -2.38 41.66 0 42 C-0.020625 40.700625 -0.04125 39.40125 -0.0625 38.0625 C-0.08399454 36.70834367 -0.07148199 35.35243917 0 34 C0.33 33.67 0.66 33.34 1 33 C3.31 33 5.62 33 8 33 C7.505 21.12 7.505 21.12 7 9 C4.69 8.67 2.38 8.34 0 8 C0 5.36 0 2.72 0 0 Z " fill="#A70108" transform="translate(366,169)"/>
<path d="M0 0 C0.33 0 0.66 0 1 0 C1 14.19 1 28.38 1 43 C6.28 43 11.56 43 17 43 C17 40.36 17 37.72 17 35 C18.10859375 35.00902344 19.2171875 35.01804688 20.359375 35.02734375 C21.82295243 34.99919803 23.28649416 34.96915021 24.75 34.9375 C25.84441406 34.95393555 25.84441406 34.95393555 26.9609375 34.97070312 C29.42569639 34.96211538 29.42569639 34.96211538 33 34 C34.32 31.69 35.64 29.38 37 27 C43.93 27 50.86 27 58 27 C58 29.31 58 31.62 58 34 C52.72 34 47.44 34 42 34 C42 36.97 42 39.94 42 43 C36.72 43 31.44 43 26 43 C26 43.99 26 44.98 26 46 C23.03 46 20.06 46 17 46 C17 48.31 17 50.62 17 53 C14.36 53 11.72 53 9 53 C9 88.64 9 124.28 9 161 C8.67 161 8.34 161 8 161 C8 125.69 8 90.38 8 54 C5.36 54 2.72 54 0 54 C0 36.18 0 18.36 0 0 Z " fill="#540102" transform="translate(113,177)"/>
<path d="M0 0 C8.91 0 17.82 0 27 0 C27 2.64 27 5.28 27 8 C20.4 8 13.8 8 7 8 C7 10.64 7 13.28 7 16 C1.72 16 -3.56 16 -9 16 C-9 18.64 -9 21.28 -9 24 C-16.59 24 -24.18 24 -32 24 C-32 22.02 -32 20.04 -32 18 C-30.02 18 -28.04 18 -26 18 C-26 17.34 -26 16.68 -26 16 C-23.36 16 -20.72 16 -18 16 C-18.33 13.69 -18.66 11.38 -19 9 C-21.97 8.505 -21.97 8.505 -25 8 C-25 6.02 -25 4.04 -25 2 C-22.69 2 -20.38 2 -18 2 C-17.67 3.98 -17.34 5.96 -17 8 C-11.39 8 -5.78 8 0 8 C0 5.36 0 2.72 0 0 Z " fill="#F50A19" transform="translate(156,153)"/>
<path d="M0 0 C0.33 0 0.66 0 1 0 C1 17.82 1 35.64 1 54 C-1.64 54.33 -4.28 54.66 -7 55 C-7 56.65 -7 58.3 -7 60 C-7.66 60 -8.32 60 -9 60 C-9 60.66 -9 61.32 -9 62 C-11.31 62 -13.62 62 -16 62 C-16 59.36 -16 56.72 -16 54 C-18.97 54 -21.94 54 -25 54 C-25 50.37 -25 46.74 -25 43 C-30.28 43 -35.56 43 -41 43 C-41 40.36 -41 37.72 -41 35 C-32.75 35 -24.5 35 -16 35 C-16 37.64 -16 40.28 -16 43 C-10.72 43 -5.44 43 0 43 C0 28.81 0 14.62 0 0 Z " fill="#510102" transform="translate(391,177)"/>
<path d="M0 0 C0.33 1.32 0.66 2.64 1 4 C7.27 4.33 13.54 4.66 20 5 C20 7.64 20 10.28 20 13 C25.28 13 30.56 13 36 13 C36 16.63 36 20.26 36 24 C33.36 24 30.72 24 28 24 C28 23.01 28 22.02 28 21 C22.72 20.67 17.44 20.34 12 20 C12 17.69 12 15.38 12 13 C6.06 13 0.12 13 -6 13 C-6 10.36 -6 7.72 -6 5 C-54.51 5 -103.02 5 -153 5 C-153 4.67 -153 4.34 -153 4 C-104.16 3.67 -55.32 3.34 -5 3 C-5 3.66 -5 4.32 -5 5 C-2.525 2.525 -2.525 2.525 0 0 Z " fill="#ADABAB" transform="translate(330,207)"/>
<path d="M0 0 C7.71484375 -0.09765625 7.71484375 -0.09765625 10 0 C11 1 11 1 11.0625 4.5625 C11.041875 5.696875 11.02125 6.83125 11 8 C12.98 8 14.96 8 17 8 C17 10.64 17 13.28 17 16 C19.64 16 22.28 16 25 16 C25 26.89 25 37.78 25 49 C22.36 49 19.72 49 17 49 C17 41.08 17 33.16 17 25 C14.36 25 11.72 25 9 25 C9 22.36 9 19.72 9 17 C6.03 17 3.06 17 0 17 C0 11.39 0 5.78 0 0 Z " fill="#E1E1E1" transform="translate(391,247)"/>
<path d="M0 0 C6.6 0 13.2 0 20 0 C20 0.33 20 0.66 20 1 C13.73 1 7.46 1 1 1 C1 3.97 1 6.94 1 10 C-3.95 10 -8.9 10 -14 10 C-14 12.31 -14 14.62 -14 17 C-16.70879335 18.35439668 -19.00933268 18.06501451 -22 18 C-22 19.98 -22 21.96 -22 24 C-24.64 24 -27.28 24 -30 24 C-29.95875 24.928125 -29.9175 25.85625 -29.875 26.8125 C-30 30 -30 30 -32 33 C-32.66 33 -33.32 33 -34 33 C-33.95875 33.78375 -33.9175 34.5675 -33.875 35.375 C-34 38 -34 38 -36 40 C-39.125 40.125 -39.125 40.125 -42 40 C-41.979375 40.804375 -41.95875 41.60875 -41.9375 42.4375 C-42 45 -42 45 -43 46 C-44.99958364 46.04080783 -47.00045254 46.04254356 -49 46 C-49 48.31 -49 50.62 -49 53 C-51 54 -51 54 -57 54 C-57 59.28 -57 64.56 -57 70 C-52.05 70 -47.1 70 -42 70 C-42 72.64 -42 75.28 -42 78 C-47.28 78 -52.56 78 -58 78 C-58.33 76.02 -58.66 74.04 -59 72 C-61.31 72 -63.62 72 -66 72 C-66 73.98 -66 75.96 -66 78 C-65.030625 77.979375 -64.06125 77.95875 -63.0625 77.9375 C-60 78 -60 78 -59 79 C-59 81.31 -59 83.62 -59 86 C-64.28 86 -69.56 86 -75 86 C-75 88.64 -75 91.28 -75 94 C-75.33 94 -75.66 94 -76 94 C-76 91.03 -76 88.06 -76 85 C-71.545 84.505 -71.545 84.505 -67 84 C-67.165 83.360625 -67.33 82.72125 -67.5 82.0625 C-68.15523426 78.04919018 -68.28516502 74.05940788 -68 70 C-67.505 69.505 -67.505 69.505 -67 69 C-64.36 69 -61.72 69 -59 69 C-59 63.72 -59 58.44 -59 53 C-55.535 52.505 -55.535 52.505 -52 52 C-51.855625 50.865625 -51.71125 49.73125 -51.5625 48.5625 C-51 45 -51 45 -50 44 C-48.00041636 43.95919217 -45.99954746 43.95745644 -44 44 C-44 41.69 -44 39.38 -44 37 C-41.03 36.505 -41.03 36.505 -38 36 C-37.67 34.02 -37.34 32.04 -37 30 C-35.35 29.67 -33.7 29.34 -32 29 C-31.67 27.02 -31.34 25.04 -31 23 C-28.69 23 -26.38 23 -24 23 C-24 20.36 -24 17.72 -24 15 C-21.69 15 -19.38 15 -17 15 C-17.020625 13.865625 -17.04125 12.73125 -17.0625 11.5625 C-17 8 -17 8 -16 7 C-13.47403741 6.76346477 -10.96892793 6.57826308 -8.4375 6.4375 C-7.72658203 6.39431641 -7.01566406 6.35113281 -6.28320312 6.30664062 C-4.52238088 6.20028223 -2.7612168 6.09961154 -1 6 C-0.67 4.02 -0.34 2.04 0 0 Z " fill="#C00813" transform="translate(197,83)"/>
<path d="M0 0 C2.97 0 5.94 0 9 0 C9 5.28 9 10.56 9 16 C6.36 16 3.72 16 1 16 C1 18.64 1 21.28 1 24 C-1.64 24 -4.28 24 -7 24 C-7 31.92 -7 39.84 -7 48 C-9.64 48 -12.28 48 -15 48 C-15 37.11 -15 26.22 -15 15 C-12.36 15 -9.72 15 -7 15 C-7 12.36 -7 9.72 -7 7 C-5.02 6.67 -3.04 6.34 -1 6 C-0.67 4.02 -0.34 2.04 0 0 Z " fill="#E1E1E1" transform="translate(104,248)"/>
<path d="M0 0 C0.33 0 0.66 0 1 0 C1 20.46 1 40.92 1 62 C3.97 62 6.94 62 10 62 C10 61.34 10 60.68 10 60 C15.28 60 20.56 60 26 60 C26 45.15 26 30.3 26 15 C23.36 15 20.72 15 18 15 C18 12.36 18 9.72 18 7 C18.33 7 18.66 7 19 7 C19 9.31 19 11.62 19 14 C21.64 14 24.28 14 27 14 C27.02526563 21.81452752 27.04283105 29.62904458 27.05493164 37.44360352 C27.05997383 40.10441481 27.06680736 42.76522332 27.07543945 45.42602539 C27.08751009 49.24105516 27.09322929 53.05604844 27.09765625 56.87109375 C27.10281754 58.06899033 27.10797882 59.2668869 27.11329651 60.50108337 C27.11340981 62.15268211 27.11340981 62.15268211 27.11352539 63.83764648 C27.115746 64.81249496 27.11796661 65.78734344 27.12025452 66.79173279 C27 69 27 69 26 70 C23.66702567 70.04092937 21.33294775 70.04241723 19 70 C19.020625 71.134375 19.04125 72.26875 19.0625 73.4375 C19 77 19 77 18 78 C15.13732433 78.07325168 12.299281 78.09238205 9.4375 78.0625 C8.63119141 78.05798828 7.82488281 78.05347656 6.99414062 78.04882812 C4.99606244 78.03700518 2.99802217 78.01906914 1 78 C-0.47988792 75.04022416 -0.13010399 72.04021991 -0.11352539 68.79638672 C-0.11367142 68.0548233 -0.11381744 67.31325989 -0.1139679 66.54922485 C-0.11327 64.09268287 -0.10548334 61.63621627 -0.09765625 59.1796875 C-0.09579163 57.4786076 -0.09436794 55.77752716 -0.09336853 54.07644653 C-0.08954678 49.59493533 -0.0797194 45.11345643 -0.06866455 40.63195801 C-0.05844308 36.0606327 -0.05386933 31.48930219 -0.04882812 26.91796875 C-0.03809685 17.94529829 -0.02102451 8.97265183 0 0 Z " fill="#575757" transform="translate(390,248)"/>
<path d="M0 0 C3.3 0 6.6 0 10 0 C10 26.07 10 52.14 10 79 C4.39 79 -1.22 79 -7 79 C-8 78 -8 78 -8.0625 74.4375 C-8.041875 73.303125 -8.02125 72.16875 -8 71 C-10.64 71 -13.28 71 -16 71 C-16 52.52 -16 34.04 -16 15 C-13.36 15 -10.72 15 -8 15 C-8 12.69 -8 10.38 -8 8 C-7.67 8 -7.34 8 -7 8 C-7 10.64 -7 13.28 -7 16 C-9.64 16 -12.28 16 -15 16 C-15 30.85 -15 45.7 -15 61 C-9.72 61 -4.44 61 1 61 C1.495 61.495 1.495 61.495 2 62 C5.465 62.495 5.465 62.495 9 63 C9 42.54 9 22.08 9 1 C6.03 1 3.06 1 0 1 C0 0.67 0 0.34 0 0 Z " fill="#5E5E5D" transform="translate(104,247)"/>
<path d="M0 0 C4.23176701 -0.02499226 8.46349323 -0.04299623 12.6953125 -0.05493164 C14.13054148 -0.05991507 15.56576551 -0.06670425 17.00097656 -0.07543945 C25.05100017 -0.12315577 33.00283763 -0.06861751 41 1 C41 3.64 41 6.28 41 9 C37.7 9 34.4 9 31 9 C31.00785522 10.54324951 31.00785522 10.54324951 31.01586914 12.11767578 C31.03403812 15.95311607 31.04547535 19.78855259 31.05493164 23.62402344 C31.05994473 25.28060548 31.06675689 26.93718313 31.07543945 28.59375 C31.08763793 30.98178189 31.09325867 33.36975502 31.09765625 35.7578125 C31.10281754 36.49242706 31.10797882 37.22704163 31.11329651 37.98391724 C31.11375003 42.1887031 30.70068962 45.79586229 30 50 C23.4 50 16.8 50 10 50 C10 47.69 10 45.38 10 43 C11.28777344 42.93941406 12.57554687 42.87882812 13.90234375 42.81640625 C15.58074159 42.73201753 17.25912636 42.6473687 18.9375 42.5625 C19.78763672 42.52318359 20.63777344 42.48386719 21.51367188 42.44335938 C22.32255859 42.40146484 23.13144531 42.35957031 23.96484375 42.31640625 C24.7137085 42.27974854 25.46257324 42.24309082 26.23413086 42.20532227 C28.02461326 42.18228937 28.02461326 42.18228937 29 41 C29.16029688 38.04470496 29.25957328 35.11017543 29.31640625 32.15234375 C29.33718735 31.2659169 29.35796844 30.37949005 29.37937927 29.46620178 C29.444974 26.623383 29.50380552 23.78046883 29.5625 20.9375 C29.6056758 19.01496394 29.64928978 17.09243766 29.69335938 15.16992188 C29.80149336 10.44671107 29.90049247 5.72343208 30 1 C20.1 1 10.2 1 0 1 C0 0.67 0 0.34 0 0 Z " fill="#B10109" transform="translate(191,144)"/>
<path d="M0 0 C0.66 0 1.32 0 2 0 C2.33 1.98 2.66 3.96 3 6 C0.03 6 -2.94 6 -6 6 C-6 8.31 -6 10.62 -6 13 C-8.64 13 -11.28 13 -14 13 C-14 48.64 -14 84.28 -14 121 C-14.33 121 -14.66 121 -15 121 C-15 85.69 -15 50.38 -15 14 C-17.64 14 -20.28 14 -23 14 C-23 10.7 -23 7.4 -23 4 C-20.95840905 3.9727384 -18.91671037 3.95348655 -16.875 3.9375 C-15.73804687 3.92589844 -14.60109375 3.91429687 -13.4296875 3.90234375 C-10.1870844 3.994673 -7.18067388 4.38610094 -4 5 C-4 4.34 -4 3.68 -4 3 C-3.01 3 -2.02 3 -1 3 C-0.67 2.01 -0.34 1.02 0 0 Z " fill="#390F10" transform="translate(136,217)"/>
<path d="M0 0 C12.21 0 24.42 0 37 0 C37 2.64 37 5.28 37 8 C24.79 8 12.58 8 0 8 C0 5.36 0 2.72 0 0 Z " fill="#F70B19" transform="translate(232,145)"/>
<path d="M0 0 C2.97 0 5.94 0 9 0 C9 2.64 9 5.28 9 8 C11.31 8 13.62 8 16 8 C16 7.34 16 6.68 16 6 C16.66 6.33 17.32 6.66 18 7 C18 31.75 18 56.5 18 82 C17.34 81.67 16.68 81.34 16 81 C16 57.24 16 33.48 16 9 C13.69 9 11.38 9 9 9 C9 11.64 9 14.28 9 17 C6.03 17 3.06 17 0 17 C0 11.39 0 5.78 0 0 Z " fill="#B4B4B4" transform="translate(366,231)"/>
<path d="M0 0 C2.31 0 4.62 0 7 0 C7 13.2 7 26.4 7 40 C4.69 40 2.38 40 0 40 C0 26.8 0 13.6 0 0 Z " fill="#F80918" transform="translate(115,179)"/>
<path d="M0 0 C9.76150988 -0.02312446 19.5230133 -0.04091561 29.28454494 -0.05181217 C33.81674094 -0.05704078 38.34891827 -0.06413801 42.88110352 -0.07543945 C47.2512283 -0.08626914 51.62133508 -0.09227701 55.99147224 -0.09487724 C57.66250963 -0.09673135 59.33354597 -0.10035168 61.00457573 -0.10573006 C63.33697551 -0.11294159 65.66929993 -0.1139909 68.00170898 -0.11352539 C68.6994191 -0.11712067 69.39712921 -0.12071594 70.11598206 -0.12442017 C74.88594784 -0.11405216 74.88594784 -0.11405216 76 1 C76.04092937 3.33297433 76.04241723 5.66705225 76 8 C77.14339844 7.98839844 78.28679687 7.97679688 79.46484375 7.96484375 C80.95572754 7.95546712 82.44661309 7.94636679 83.9375 7.9375 C85.06961914 7.92493164 85.06961914 7.92493164 86.22460938 7.91210938 C88.14994313 7.90347559 90.07535581 7.94775667 92 8 C93 9 93 9 93 16 C98.28 16 103.56 16 109 16 C109 18.64 109 21.28 109 24 C111.64 24 114.28 24 117 24 C117 26.64 117 29.28 117 32 C119.31 32 121.62 32 124 32 C124.33 33.98 124.66 35.96 125 38 C126.65 38.33 128.3 38.66 130 39 C129.67 40.32 129.34 41.64 129 43 C129 42.01 129 41.02 129 40 C128.195625 40.020625 127.39125 40.04125 126.5625 40.0625 C124 40 124 40 123 39 C122.95936168 37.33382885 122.957279 35.66611905 123 34 C120.69 33.67 118.38 33.34 116 33 C116 30.36 116 27.72 116 25 C113.36 25 110.72 25 108 25 C108 22.36 108 19.72 108 17 C106.85660156 17.01160156 105.71320313 17.02320312 104.53515625 17.03515625 C103.04427246 17.04453288 101.55338691 17.05363321 100.0625 17.0625 C99.30775391 17.07087891 98.55300781 17.07925781 97.77539062 17.08789062 C95.85005687 17.09652441 93.92464419 17.05224333 92 17 C91.67 16.67 91.34 16.34 91 16 C91 14.35 91 12.7 91 11 C85.39 10.67 79.78 10.34 74 10 C73.505 6.535 73.505 6.535 73 3 C49.24 2.34 25.48 1.68 1 1 C1 3.64 1 6.28 1 9 C-5.6 9 -12.2 9 -19 9 C-19 8.67 -19 8.34 -19 8 C-12.73 8 -6.46 8 0 8 C0 5.36 0 2.72 0 0 Z " fill="#610507" transform="translate(216,74)"/>
<path d="M0 0 C9.9 0 19.8 0 30 0 C30 2.64 30 5.28 30 8 C20.1 8.33 10.2 8.66 0 9 C0 6.03 0 3.06 0 0 Z " fill="#F60B19" transform="translate(191,145)"/>
<path d="M0 0 C11.22 0 22.44 0 34 0 C34 2.31 34 4.62 34 7 C22.78 7 11.56 7 0 7 C0 4.69 0 2.38 0 0 Z " fill="#64EFEF" transform="translate(236,337)"/>
<path d="M0 0 C3.3 0 6.6 0 10 0 C10 10.89 10 21.78 10 33 C9.67 33 9.34 33 9 33 C9 22.44 9 11.88 9 1 C6.69 1.33 4.38 1.66 2 2 C1.67 12.23 1.34 22.46 1 33 C0.34 33 -0.32 33 -1 33 C-1 33.66 -1 34.32 -1 35 C-1.66 35 -2.32 35 -3 35 C-3 36.65 -3 38.3 -3 40 C-5.05078125 40.22786458 -7.1015625 40.45572917 -9.15234375 40.68359375 C-11.01140229 40.81886614 -11.01140229 40.81886614 -12 42 C-16.95 42 -21.9 42 -27 42 C-27.33 31.11 -27.66 20.22 -28 9 C-29.98 9 -31.96 9 -34 9 C-34 12.63 -34 16.26 -34 20 C-34.33 20 -34.66 20 -35 20 C-35 16.04 -35 12.08 -35 8 C-28.84765625 7.90234375 -28.84765625 7.90234375 -27 8 C-26 9 -26 9 -25.88647461 12.05102539 C-25.88663366 13.39991271 -25.89232388 14.74880614 -25.90234375 16.09765625 C-25.9037587 16.80651474 -25.90517365 17.51537323 -25.90663147 18.24571228 C-25.91224557 20.51801712 -25.92480037 22.79022475 -25.9375 25.0625 C-25.94251319 26.59960796 -25.94707641 28.13671745 -25.95117188 29.67382812 C-25.96221958 33.44925642 -25.97949359 37.22461171 -26 41 C-23.36 41 -20.72 41 -18 41 C-18 39.02 -18 37.04 -18 35 C-17.20335937 34.95101562 -16.40671875 34.90203125 -15.5859375 34.8515625 C-14.52632812 34.77679688 -13.46671875 34.70203125 -12.375 34.625 C-10.80878906 34.52058594 -10.80878906 34.52058594 -9.2109375 34.4140625 C-5.46646156 34.03581962 -5.46646156 34.03581962 0 32 C0 21.44 0 10.88 0 0 Z " fill="#B50109" transform="translate(182,161)"/>
<path d="M0 0 C0.33 0 0.66 0 1 0 C1 17.82 1 35.64 1 54 C-3.455 54.495 -3.455 54.495 -8 55 C-8 54.34 -8 53.68 -8 53 C-10.64 53 -13.28 53 -16 53 C-16 50.69 -16 48.38 -16 46 C-18.64 46 -21.28 46 -24 46 C-24 45.01 -24 44.02 -24 43 C-23.3387915 43.03552979 -22.67758301 43.07105957 -21.99633789 43.10766602 C-19.01864712 43.26466247 -16.04061043 43.41368634 -13.0625 43.5625 C-12.02158203 43.61857422 -10.98066406 43.67464844 -9.90820312 43.73242188 C-8.42416992 43.80493164 -8.42416992 43.80493164 -6.91015625 43.87890625 C-5.99371338 43.9260376 -5.07727051 43.97316895 -4.13305664 44.02172852 C-2.01570615 44.24899531 -2.01570615 44.24899531 -1 43 C-0.87814857 41.65016252 -0.82233169 40.29425299 -0.79467773 38.93920898 C-0.77473251 38.07839218 -0.75478729 37.21757538 -0.73423767 36.33067322 C-0.71752518 35.39526199 -0.70081268 34.45985077 -0.68359375 33.49609375 C-0.66281265 32.54307877 -0.64203156 31.59006378 -0.62062073 30.60816956 C-0.55501823 27.5513559 -0.49619082 24.49445344 -0.4375 21.4375 C-0.39432494 19.37043337 -0.35071099 17.30337586 -0.30664062 15.23632812 C-0.19932599 10.15764405 -0.09808909 5.0788703 0 0 Z " fill="#490001" transform="translate(391,177)"/>
<path d="M0 0 C0.33 0 0.66 0 1 0 C1 4.95 1 9.9 1 15 C3.64 15 6.28 15 9 15 C9 17.97 9 20.94 9 24 C11.31 24 13.62 24 16 24 C16 38.19 16 52.38 16 67 C10.72 67 5.44 67 0 67 C0 64.36 0 61.72 0 59 C0.66 59 1.32 59 2 59 C1.67 61.31 1.34 63.62 1 66 C5.29 66 9.58 66 14 66 C14 52.8 14 39.6 14 26 C12.02 26 10.04 26 8 26 C8 22.7 8 19.4 8 16 C2.39 16 -3.22 16 -9 16 C-9 9 -9 9 -8 8 C-5.32941149 7.85884839 -2.67567762 7.95752893 0 8 C0 5.36 0 2.72 0 0 Z " fill="#8B0B13" transform="translate(375,153)"/>
<path d="M0 0 C8.91 0 17.82 0 27 0 C27 0.33 27 0.66 27 1 C18.15967082 1.77546747 9.83223535 2.19354532 1 1 C1.33 3.31 1.66 5.62 2 8 C2.99 8 3.98 8 5 8 C5 10.64 5 13.28 5 16 C-2.26 16 -9.52 16 -17 16 C-17 13.36 -17 10.72 -17 8 C-11.39 8 -5.78 8 0 8 C0 5.36 0 2.72 0 0 Z " fill="#ACA6A5" transform="translate(172,204)"/>
<path d="M0 0 C6.6 0 13.2 0 20 0 C20 0.33 20 0.66 20 1 C13.73 1 7.46 1 1 1 C1 3.97 1 6.94 1 10 C-3.95 10 -8.9 10 -14 10 C-14 12.31 -14 14.62 -14 17 C-16.70879335 18.35439668 -19.00933268 18.06501451 -22 18 C-22 19.98 -22 21.96 -22 24 C-24.64 24 -27.28 24 -30 24 C-29.938125 25.3921875 -29.938125 25.3921875 -29.875 26.8125 C-30 30 -30 30 -32 33 C-32.66 33 -33.32 33 -34 33 C-33.95875 33.78375 -33.9175 34.5675 -33.875 35.375 C-34 38 -34 38 -36 40 C-39.125 40.125 -39.125 40.125 -42 40 C-42 41.65 -42 43.3 -42 45 C-42.33 45 -42.66 45 -43 45 C-43 42.69 -43 40.38 -43 38 C-40.525 37.505 -40.525 37.505 -38 37 C-37.67 34.69 -37.34 32.38 -37 30 C-35.35 29.67 -33.7 29.34 -32 29 C-31.67 27.02 -31.34 25.04 -31 23 C-28.69 23 -26.38 23 -24 23 C-24 20.36 -24 17.72 -24 15 C-21.69 15 -19.38 15 -17 15 C-17.0309375 13.2984375 -17.0309375 13.2984375 -17.0625 11.5625 C-17 8 -17 8 -16 7 C-13.47403741 6.76346477 -10.96892793 6.57826308 -8.4375 6.4375 C-7.37112305 6.37272461 -7.37112305 6.37272461 -6.28320312 6.30664062 C-4.52238088 6.20028223 -2.7612168 6.09961154 -1 6 C-0.67 4.02 -0.34 2.04 0 0 Z " fill="#CB1120" transform="translate(197,83)"/>
<path d="M0 0 C8.25 0 16.5 0 25 0 C25 2.64 25 5.28 25 8 C16.75 8 8.5 8 0 8 C0 5.36 0 2.72 0 0 Z " fill="#F40B1B" transform="translate(316,153)"/>
<path d="M0 0 C1.13598633 0.00483398 1.13598633 0.00483398 2.29492188 0.00976562 C3.47344727 0.02233398 3.47344727 0.02233398 4.67578125 0.03515625 C5.47306641 0.03966797 6.27035156 0.04417969 7.09179688 0.04882812 C9.05732382 0.06059775 11.0228121 0.07853277 12.98828125 0.09765625 C12.98828125 3.72765625 12.98828125 7.35765625 12.98828125 11.09765625 C10.34828125 11.09765625 7.70828125 11.09765625 4.98828125 11.09765625 C4.98828125 10.10765625 4.98828125 9.11765625 4.98828125 8.09765625 C-0.29171875 7.76765625 -5.57171875 7.43765625 -11.01171875 7.09765625 C-10.35171875 6.76765625 -9.69171875 6.43765625 -9.01171875 6.09765625 C-8.54765625 4.86015625 -8.54765625 4.86015625 -8.07421875 3.59765625 C-7.72359375 2.77265625 -7.37296875 1.94765625 -7.01171875 1.09765625 C-4.30455633 0.19526878 -2.77395107 -0.02085677 0 0 Z " fill="#ABA9AA" transform="translate(353.01171875,219.90234375)"/>
<path d="M0 0 C55.11 0 110.22 0 167 0 C167 1.32 167 2.64 167 4 C166.01 3.67 165.02 3.34 164 3 C164 2.34 164 1.68 164 1 C162.9235609 1.00911329 162.9235609 1.00911329 161.82537556 1.01841068 C144.26810105 1.16664744 126.71078551 1.30833626 109.15340137 1.4429636 C100.66237875 1.50822522 92.17138336 1.57560756 83.68041992 1.64819336 C76.2695009 1.71154069 68.85856155 1.77069419 61.44757098 1.82505554 C57.53279792 1.85391132 53.61806409 1.88470095 49.70334816 1.92053413 C33.10718062 2.07110609 16.57131723 2.07995577 0 1 C0 0.67 0 0.34 0 0 Z " fill="#7E7E7E" transform="translate(169,231)"/>
<path d="M0 0 C45.87 0 91.74 0 139 0 C139 0.33 139 0.66 139 1 C93.46 1 47.92 1 1 1 C1 3.64 1 6.28 1 9 C-6.59 9 -14.18 9 -22 9 C-22 8.67 -22 8.34 -22 8 C-12.1 7.505 -12.1 7.505 -2 7 C-1.34 4.69 -0.68 2.38 0 0 Z " fill="#BA0109" transform="translate(185,136)"/>
<path d="M0 0 C5.28 0 10.56 0 16 0 C16 2.64 16 5.28 16 8 C13.36 8 10.72 8 8 8 C8 8.99 8 9.98 8 11 C5.36 11 2.72 11 0 11 C0 7.37 0 3.74 0 0 Z " fill="#9C9A99" transform="translate(139,220)"/>
<path d="M0 0 C1.48831242 0.00667405 2.97660807 0.01863442 4.46484375 0.03515625 C5.22345703 0.03966797 5.98207031 0.04417969 6.76367188 0.04882812 C8.64326246 0.06064945 10.52281274 0.07858547 12.40234375 0.09765625 C12.40234375 3.06765625 12.40234375 6.03765625 12.40234375 9.09765625 C6.79234375 9.09765625 1.18234375 9.09765625 -4.59765625 9.09765625 C-4.59765625 0.12480066 -4.59765625 0.12480066 0 0 Z " fill="#5A0C0D" transform="translate(337.59765625,202.90234375)"/>
<path d="M0 0 C0.33 0.99 0.66 1.98 1 3 C3.64 3 6.28 3 9 3 C9 5.31 9 7.62 9 10 C11.64 10 14.28 10 17 10 C17.33 12.31 17.66 14.62 18 17 C17.34 17 16.68 17 16 17 C16 17.66 16 18.32 16 19 C13.69 19 11.38 19 9 19 C9 16.36 9 13.72 9 11 C6.03 11 3.06 11 0 11 C0 7.37 0 3.74 0 0 Z " fill="#696466" transform="translate(366,220)"/>
<path d="M0 0 C2.97 0 5.94 0 9 0 C9.09063407 5.80058027 8.83485204 11.26039225 8 17 C5.36 17 2.72 17 0 17 C0 11.39 0 5.78 0 0 Z " fill="#BEBEBE" transform="translate(130,231)"/>
<path d="M0 0 C2.97 0 5.94 0 9 0 C9 2.64 9 5.28 9 8 C6.03 8 3.06 8 0 8 C0 10.64 0 13.28 0 16 C-2.64 16 -5.28 16 -8 16 C-8 13.03 -8 10.06 -8 7 C-5.36 7 -2.72 7 0 7 C0 4.69 0 2.38 0 0 Z " fill="#6A6261" transform="translate(130,223)"/>
<path d="M0 0 C2.64 0 5.28 0 8 0 C9.14702282 5.25081557 8.93088566 10.06516538 8.5625 15.375 C8.51029297 16.20644531 8.45808594 17.03789062 8.40429688 17.89453125 C8.27561269 19.93008108 8.13864593 21.96510441 8 24 C11.44275082 23.69654278 11.44275082 23.69654278 15 23 C16.71711243 20.55503957 16.71711243 20.55503957 18 18 C19.32 17.67 20.64 17.34 22 17 C22.33 11.72 22.66 6.44 23 1 C23.33 1 23.66 1 24 1 C24 8.92 24 16.84 24 25 C18.39 25 12.78 25 7 25 C7 17.08 7 9.16 7 1 C6.01 1 5.02 1 4 1 C3.67 1.99 3.34 2.98 3 4 C2.34 4 1.68 4 1 4 C1 9.94 1 15.88 1 22 C0.67 22 0.34 22 0 22 C0 14.74 0 7.48 0 0 Z " fill="#BA010A" transform="translate(123,186)"/>
<path d="M0 0 C4.23176701 -0.02499226 8.46349323 -0.04299623 12.6953125 -0.05493164 C14.13054148 -0.05991507 15.56576551 -0.06670425 17.00097656 -0.07543945 C25.05100017 -0.12315577 33.00283763 -0.06861751 41 1 C41 3.64 41 6.28 41 9 C37.37 9 33.74 9 30 9 C30 6.36 30 3.72 30 1 C20.1 1 10.2 1 0 1 C0 0.67 0 0.34 0 0 Z " fill="#CE020C" transform="translate(191,144)"/>
<path d="M0 0 C0 2.31 0 4.62 0 7 C-5.28 7 -10.56 7 -16 7 C-16 9.97 -16 12.94 -16 16 C-21.28 16 -26.56 16 -32 16 C-32 15.67 -32 15.34 -32 15 C-27.05 15 -22.1 15 -17 15 C-17 12.03 -17 9.06 -17 6 C-15.68 5.67 -14.36 5.34 -13 5 C-12.52046875 4.00226563 -12.52046875 4.00226563 -12.03125 2.984375 C-11.6909375 2.32953125 -11.350625 1.6746875 -11 1 C-8.90625 0.390625 -8.90625 0.390625 -6.5 0.25 C-5.7059375 0.19328125 -4.911875 0.1365625 -4.09375 0.078125 C-2.72986733 0.02723386 -1.3648318 0 0 0 Z " fill="#510C0C" transform="translate(171,204)"/>
<path d="M0 0 C0.33 1.32 0.66 2.64 1 4 C-0.32 4 -1.64 4 -3 4 C-3 15.22 -3 26.44 -3 38 C-1.68 38 -0.36 38 1 38 C1 39.98 1 41.96 1 44 C-3.875 42.25 -3.875 42.25 -5 40 C-5.28381646 34.73789913 -5.31366103 29.47484243 -5.35009766 24.20581055 C-5.36668362 22.44525966 -5.39400854 20.68477683 -5.43212891 18.92456055 C-5.48677749 16.38815347 -5.50874861 13.85332193 -5.5234375 11.31640625 C-5.54610687 10.52883438 -5.56877625 9.74126251 -5.59213257 8.92982483 C-5.58349609 6.70532227 -5.58349609 6.70532227 -5 3 C-2.46728516 0.98022461 -2.46728516 0.98022461 0 0 Z " fill="#0D3737" transform="translate(190,273)"/>
<path d="M0 0 C0.33 0 0.66 0 1 0 C1 4.95 1 9.9 1 15 C3.64 15 6.28 15 9 15 C9 17.97 9 20.94 9 24 C8.67 24 8.34 24 8 24 C8 21.36 8 18.72 8 16 C2.39 16 -3.22 16 -9 16 C-9 9 -9 9 -8 8 C-5.32941149 7.85884839 -2.67567762 7.95752893 0 8 C0 5.36 0 2.72 0 0 Z " fill="#630206" transform="translate(375,153)"/>
<path d="M0 0 C11.22 0 22.44 0 34 0 C36 5 36 5 35.125 7.3125 C34.75375 7.869375 34.3825 8.42625 34 9 C34 6.69 34 4.38 34 2 C22.78 2 11.56 2 0 2 C0 4.31 0 6.62 0 9 C-0.66 9 -1.32 9 -2 9 C-2.33 7.02 -2.66 5.04 -3 3 C-2.34 3 -1.68 3 -1 3 C-0.67 2.01 -0.34 1.02 0 0 Z " fill="#001313" transform="translate(236,335)"/>
<path d="M0 0 C0.33 0 0.66 0 1 0 C1 2.64 1 5.28 1 8 C2.7015625 7.9690625 2.7015625 7.9690625 4.4375 7.9375 C8 8 8 8 9 9 C9 11.31 9 13.62 9 16 C3.72 16 -1.56 16 -7 16 C-7 18.64 -7 21.28 -7 24 C-7.33 24 -7.66 24 -8 24 C-8 21.03 -8 18.06 -8 15 C-3.545 14.505 -3.545 14.505 1 14 C0.835 13.360625 0.67 12.72125 0.5 12.0625 C-0.15932515 8.02413348 -0.08003779 4.08192742 0 0 Z " fill="#830105" transform="translate(129,153)"/>
<path d="M0 0 C1.51400391 0.01740234 1.51400391 0.01740234 3.05859375 0.03515625 C4.07050781 0.04417969 5.08242187 0.05320313 6.125 0.0625 C7.29869141 0.07990234 7.29869141 0.07990234 8.49609375 0.09765625 C8.53851098 2.430604 8.53702312 4.76468192 8.49609375 7.09765625 C7.49609375 8.09765625 7.49609375 8.09765625 4.9921875 8.1953125 C3.47818359 8.17791016 3.47818359 8.17791016 1.93359375 8.16015625 C0.92167969 8.15113281 -0.09023437 8.14210937 -1.1328125 8.1328125 C-1.91527344 8.12121094 -2.69773438 8.10960937 -3.50390625 8.09765625 C-3.54632348 5.7647085 -3.54483562 3.43063058 -3.50390625 1.09765625 C-2.50390625 0.09765625 -2.50390625 0.09765625 0 0 Z " fill="#8B0107" transform="translate(224.50390625,186.90234375)"/>
<path d="M0 0 C2.64 0 5.28 0 8 0 C8 0.66 8 1.32 8 2 C6.02 2 4.04 2 2 2 C2.061875 3.423125 2.061875 3.423125 2.125 4.875 C2 8 2 8 0 10 C-2.31 10 -4.62 10 -7 10 C-7 23.2 -7 36.4 -7 50 C-4.69 50 -2.38 50 0 50 C0 50.33 0 50.66 0 51 C-2.64 51 -5.28 51 -8 51 C-8 36.81 -8 22.62 -8 8 C-5.36 8 -2.72 8 0 8 C0 5.36 0 2.72 0 0 Z " fill="#D01724" transform="translate(122,169)"/>
<path d="M0 0 C1.32 0 2.64 0 4 0 C4 11.22 4 22.44 4 34 C2.35 34 0.7 34 -1 34 C-1 35.98 -1 37.96 -1 40 C-5.62 40 -10.24 40 -15 40 C-15 38.02 -15 36.04 -15 34 C-14.34 34 -13.68 34 -13 34 C-13 35.32 -13 36.64 -13 38 C-9.7 38 -6.4 38 -3 38 C-2.505 35.03 -2.505 35.03 -2 32 C-0.68 31.67 0.64 31.34 2 31 C2.33 21.1 2.66 11.2 3 1 C2.01 0.67 1.02 0.34 0 0 Z " fill="#67DDDC" transform="translate(206,277)"/>
<path d="M0 0 C6.6 0 13.2 0 20 0 C20 0.33 20 0.66 20 1 C13.73 1 7.46 1 1 1 C1 3.31 1 5.62 1 8 C0 9 0 9 -3.37890625 9.09765625 C-4.77347077 9.09098369 -6.16801743 9.07902532 -7.5625 9.0625 C-8.27341797 9.05798828 -8.98433594 9.05347656 -9.71679688 9.04882812 C-11.47790013 9.03700864 -13.23896036 9.01907263 -15 9 C-15 11.31 -15 13.62 -15 16 C-17.64 16 -20.28 16 -23 16 C-23 18.31 -23 20.62 -23 23 C-23.33 23 -23.66 23 -24 23 C-24 20.36 -24 17.72 -24 15 C-21.69 15 -19.38 15 -17 15 C-17.020625 13.865625 -17.04125 12.73125 -17.0625 11.5625 C-17 8 -17 8 -16 7 C-13.47403741 6.76346477 -10.96892793 6.57826308 -8.4375 6.4375 C-7.37112305 6.37272461 -7.37112305 6.37272461 -6.28320312 6.30664062 C-4.52238088 6.20028223 -2.7612168 6.09961154 -1 6 C-0.67 4.02 -0.34 2.04 0 0 Z " fill="#921015" transform="translate(197,83)"/>
<path d="M0 0 C2.64 0 5.28 0 8 0 C8 3.63 8 7.26 8 11 C5.36 11 2.72 11 0 11 C0 7.37 0 3.74 0 0 Z " fill="#999697" transform="translate(358,220)"/>
<path d="M0 0 C3.63 0 7.26 0 11 0 C11 2.64 11 5.28 11 8 C7.37 8 3.74 8 0 8 C0 5.36 0 2.72 0 0 Z " fill="#F50B19" transform="translate(279,145)"/>
<path d="M0 0 C0.33 0 0.66 0 1 0 C1 2.31 1 4.62 1 7 C3.42031245 6.96688627 5.83153287 6.89967211 8.25 6.8125 C9.27287109 6.80379883 9.27287109 6.80379883 10.31640625 6.79492188 C12.62119953 6.74328549 12.62119953 6.74328549 16 6 C18.23544972 3.52914926 18.23544972 3.52914926 20 1 C21.32 1 22.64 1 24 1 C24 3.31 24 5.62 24 8 C29.28 8 34.56 8 40 8 C38 10 38 10 34.28466797 10.04345703 C32.68656896 9.95901247 31.08905563 9.86299567 29.4921875 9.7578125 C28.23125778 9.68697952 28.23125778 9.68697952 26.94485474 9.61471558 C24.25422774 9.46129839 21.564732 9.29331805 18.875 9.125 C17.05344118 9.01857257 15.23182678 8.91309166 13.41015625 8.80859375 C8.93938484 8.55005025 4.46957454 8.27844079 0 8 C0 5.36 0 2.72 0 0 Z " fill="#5B0A0A" transform="translate(350,212)"/>
<path d="M0 0 C0 2.31 0 4.62 0 7 C-5.12583611 7.10251672 -9.94997778 7.03590199 -15 6 C-15 5.01 -15 4.02 -15 3 C-9.8531808 -0.16727335 -5.841744 -0.35050464 0 0 Z " fill="#A10005" transform="translate(155,153)"/>
<path d="M0 0 C0 5.28 0 10.56 0 16 C2.31 16 4.62 16 7 16 C7 18.97 7 21.94 7 25 C6.34 25 5.68 25 5 25 C5 23.02 5 21.04 5 19 C3.35 19 1.7 19 0 19 C0 18.34 0 17.68 0 17 C-0.66 17 -1.32 17 -2 17 C-3.66251802 11.42567486 -4.18609365 7.6932495 -3 2 C-4.65 2 -6.3 2 -8 2 C-8 1.67 -8 1.34 -8 1 C-1.125 0 -1.125 0 0 0 Z " fill="#920409" transform="translate(368,136)"/>
<path d="M0 0 C6.27 0 12.54 0 19 0 C19 0.33 19 0.66 19 1 C18.37351563 1.03738281 17.74703125 1.07476562 17.1015625 1.11328125 C16.28429687 1.17902344 15.46703125 1.24476563 14.625 1.3125 C13.40683594 1.39951172 13.40683594 1.39951172 12.1640625 1.48828125 C9.62078662 1.82990528 9.62078662 1.82990528 8 5 C7.01 5.33 6.02 5.66 5 6 C4.67 6.66 4.34 7.32 4 8 C1.36 8 -1.28 8 -4 8 C-2.68 5.36 -1.36 2.72 0 0 Z " fill="#7D0206" transform="translate(150,204)"/>
<path d="M0 0 C3.3 0 6.6 0 10 0 C10 2.64 10 5.28 10 8 C6.7 8 3.4 8 0 8 C0 5.36 0 2.72 0 0 Z " fill="#C8010B" transform="translate(269,145)"/>
<path d="M0 0 C0.33 0 0.66 0 1 0 C1 11.22 1 22.44 1 34 C-9.23 34 -19.46 34 -30 34 C-30 33.67 -30 33.34 -30 33 C-29.15703369 32.97494385 -28.31406738 32.9498877 -27.44555664 32.92407227 C-24.32758326 32.82911845 -21.20978497 32.72987552 -18.09204102 32.62768555 C-16.74085853 32.58428777 -15.38961947 32.5426163 -14.03833008 32.50268555 C-12.09963299 32.44510048 -10.16113724 32.38085702 -8.22265625 32.31640625 C-7.05484619 32.27974854 -5.88703613 32.24309082 -4.68383789 32.20532227 C-2.08220205 32.29923812 -2.08220205 32.29923812 -1 31 C-0.92516746 29.63991862 -0.91678108 28.27604341 -0.9375 26.9140625 C-0.94587891 26.07004883 -0.95425781 25.22603516 -0.96289062 24.35644531 C-0.97513672 23.45506836 -0.98738281 22.55369141 -1 21.625 C-1.05683384 14.35801898 -0.92739263 7.22041407 0 0 Z " fill="#C0030B" transform="translate(268,153)"/>
<path d="M0 0 C0 11.22 0 22.44 0 34 C-0.66 34 -1.32 34 -2 34 C-2.66 33.34 -3.32 32.68 -4 32 C-3.71360918 30.65580166 -3.36835574 29.3240857 -3 28 C-2.91879767 25.9023604 -2.89244192 23.80231238 -2.90234375 21.703125 C-2.90556641 20.49785156 -2.90878906 19.29257812 -2.91210938 18.05078125 C-2.92467773 16.16939453 -2.92467773 16.16939453 -2.9375 14.25 C-2.94201172 12.98027344 -2.94652344 11.71054687 -2.95117188 10.40234375 C-2.96295444 7.26818164 -2.97940584 4.13411459 -3 1 C-1 0 -1 0 0 0 Z " fill="#01191B" transform="translate(295,277)"/>
<path d="M0 0 C2.64 0 5.28 0 8 0 C8 2.64 8 5.28 8 8 C5.36 8 2.72 8 0 8 C-0.33 8.99 -0.66 9.98 -1 11 C-1.0270043 9.54176788 -1.04639787 8.08339325 -1.0625 6.625 C-1.07410156 5.81289062 -1.08570313 5.00078125 -1.09765625 4.1640625 C-1 2 -1 2 0 0 Z " fill="#B0ADAD" transform="translate(147,220)"/>
<path d="M0 0 C2.97 0 5.94 0 9 0 C9 2.64 9 5.28 9 8 C6.03 8 3.06 8 0 8 C0 5.36 0 2.72 0 0 Z " fill="#969695" transform="translate(366,231)"/>
<path d="M0 0 C2.97 0 5.94 0 9 0 C9 2.64 9 5.28 9 8 C6.03 8 3.06 8 0 8 C0 5.36 0 2.72 0 0 Z " fill="#969695" transform="translate(130,231)"/>
<path d="M0 0 C2.97 0 5.94 0 9 0 C9.04241723 2.33294775 9.04092937 4.66702567 9 7 C8 8 8 8 6.15234375 8.09765625 C4.1015625 8.06510417 2.05078125 8.03255208 0 8 C0 5.36 0 2.72 0 0 Z " fill="#840003" transform="translate(342,153)"/>
<path d="M0 0 C0.66 0 1.32 0 2 0 C2 2.31 2 4.62 2 7 C-8.23 7.66 -18.46 8.32 -29 9 C-29.66 10.65 -30.32 12.3 -31 14 C-31.33 14 -31.66 14 -32 14 C-32 12.02 -32 10.04 -32 8 C-29.59610376 6.79805188 -27.92985497 6.81296102 -25.24609375 6.71875 C-24.30958984 6.68136719 -23.37308594 6.64398438 -22.40820312 6.60546875 C-20.42383304 6.53501774 -18.43945801 6.46470578 -16.45507812 6.39453125 C-15.05225586 6.33845703 -15.05225586 6.33845703 -13.62109375 6.28125 C-12.32836548 6.23581055 -12.32836548 6.23581055 -11.00952148 6.18945312 C-9.00321283 6.21575116 -9.00321283 6.21575116 -8 5 C-5.32941149 4.85884839 -2.67567762 4.95752893 0 5 C0 3.35 0 1.7 0 0 Z " fill="#8F0002" transform="translate(179,196)"/>
<path d="M0 0 C0.763125 0.20625 1.52625 0.4125 2.3125 0.625 C2.6425 2.935 2.9725 5.245 3.3125 7.625 C0.0125 7.625 -3.2875 7.625 -6.6875 7.625 C-6.375 4.75 -6.375 4.75 -5.6875 1.625 C-2.6875 -0.375 -2.6875 -0.375 0 0 Z " fill="#8A0208" transform="translate(275.6875,187.375)"/>
<path d="M0 0 C2.64 0 5.28 0 8 0 C8 2.64 8 5.28 8 8 C5.36 8 2.72 8 0 8 C0 5.36 0 2.72 0 0 Z " fill="#ED0D1B" transform="translate(350,161)"/>
<path d="M0 0 C2.64 0 5.28 0 8 0 C8 2.64 8 5.28 8 8 C5.36 8 2.72 8 0 8 C0 5.36 0 2.72 0 0 Z " fill="#810105" transform="translate(308,145)"/>
<path d="M0 0 C0.33 0.99 0.66 1.98 1 3 C3.64 3 6.28 3 9 3 C9 5.31 9 7.62 9 10 C6.36 10 3.72 10 1 10 C-0.1577506 6.52674819 -0.06866652 3.63932552 0 0 Z " fill="#5C4344" transform="translate(366,220)"/>
<path d="M0 0 C6.93 0 13.86 0 21 0 C21 0.33 21 0.66 21 1 C15.06 1.33 9.12 1.66 3 2 C2.34 4.31 1.68 6.62 1 9 C-3.61073111 10.29676812 -7.33840089 9.71109139 -12 9 C-12 11.64 -12 14.28 -12 17 C-15.96 17.495 -15.96 17.495 -20 18 C-20.33 17.34 -20.66 16.68 -21 16 C-18.36 16 -15.72 16 -13 16 C-13 13.36 -13 10.72 -13 8 C-8.71 8 -4.42 8 0 8 C0 5.36 0 2.72 0 0 Z " fill="#DF010C" transform="translate(233,83)"/>
<path d="M0 0 C5.77759884 -0.12036664 11.27959989 0.1679418 17 1 C17.33 2.98 17.66 4.96 18 7 C16.52093108 7.02689216 15.04172517 7.04634621 13.5625 7.0625 C12.32693359 7.07990234 12.32693359 7.07990234 11.06640625 7.09765625 C9 7 9 7 8 6 C7.95936168 4.33382885 7.957279 2.66611905 8 1 C5.36 1 2.72 1 0 1 C0 0.67 0 0.34 0 0 Z " fill="#AF020A" transform="translate(290,84)"/>
<path d="M0 0 C1.98 0 3.96 0 6 0 C6 2.64 6 5.28 6 8 C3.03 8 0.06 8 -3 8 C-2.01 5.36 -1.02 2.72 0 0 Z " fill="#8A0207" transform="translate(310,187)"/>
<path d="M0 0 C5.28 0 10.56 0 16 0 C17 3 17 3 16 6 C16.99 6.33 17.98 6.66 19 7 C17.68 7.33 16.36 7.66 15 8 C15 6.02 15 4.04 15 2 C10.38 2 5.76 2 1 2 C1 3.98 1 5.96 1 8 C-0.65 8 -2.3 8 -4 8 C-3.01 7.67 -2.02 7.34 -1 7 C-0.67 4.69 -0.34 2.38 0 0 Z " fill="#073234" transform="translate(299,269)"/>
<path d="M0 0 C2.64 0 5.28 0 8 0 C8 2.31 8 4.62 8 7 C5.36 7 2.72 7 0 7 C0 4.69 0 2.38 0 0 Z " fill="#554746" transform="translate(130,223)"/>
<path d="M0 0 C2.31 0 4.62 0 7 0 C7 2.31 7 4.62 7 7 C7.969375 6.979375 8.93875 6.95875 9.9375 6.9375 C13 7 13 7 14 8 C14.14115161 10.67058851 14.04247107 13.32432238 14 16 C13.34 16 12.68 16 12 16 C12 13.69 12 11.38 12 9 C9.69 9 7.38 9 5 9 C5 6.69 5 4.38 5 2 C3.35 2 1.7 2 0 2 C0 1.34 0 0.68 0 0 Z " fill="#66050A" transform="translate(346,120)"/>
<path d="M0 0 C0.33 0 0.66 0 1 0 C1 3.63 1 7.26 1 11 C-1.64 11.33 -4.28 11.66 -7 12 C-7 11.34 -7 10.68 -7 10 C-9.64 10 -12.28 10 -15 10 C-15 7.69 -15 5.38 -15 3 C-14.34 3 -13.68 3 -13 3 C-12.67 4.65 -12.34 6.3 -12 8 C-8.7 8 -5.4 8 -2 8 C-1.34 5.36 -0.68 2.72 0 0 Z " fill="#450709" transform="translate(390,220)"/>
<path d="M0 0 C6.15234375 -0.09765625 6.15234375 -0.09765625 8 0 C9 1 9 1 9.0625 4.0625 C9.041875 5.031875 9.02125 6.00125 9 7 C6.36 6.67 3.72 6.34 1 6 C0.67 4.02 0.34 2.04 0 0 Z " fill="#A70108" transform="translate(281,76)"/>
<path d="M0 0 C1.134375 0.020625 2.26875 0.04125 3.4375 0.0625 C3.4375 0.3925 3.4375 0.7225 3.4375 1.0625 C1.7875 1.3925 0.1375 1.7225 -1.5625 2.0625 C-1.8925 3.3825 -2.2225 4.7025 -2.5625 6.0625 C2.7175 6.3925 7.9975 6.7225 13.4375 7.0625 C13.4375 10.0325 13.4375 13.0025 13.4375 16.0625 C13.1075 16.0625 12.7775 16.0625 12.4375 16.0625 C12.4375 13.4225 12.4375 10.7825 12.4375 8.0625 C6.8275 8.0625 1.2175 8.0625 -4.5625 8.0625 C-4.5625 0.08004386 -4.5625 0.08004386 0 0 Z " fill="#750003" transform="translate(370.5625,160.9375)"/>
<path d="M0 0 C1.65 0 3.3 0 5 0 C4.67 0.66 4.34 1.32 4 2 C3.34 2 2.68 2 2 2 C1.67 3.98 1.34 5.96 1 8 C-4.61 8 -10.22 8 -16 8 C-14 6 -14 6 -10.7421875 5.8046875 C-9.46601563 5.82789063 -8.18984375 5.85109375 -6.875 5.875 C-4.95300781 5.90207031 -4.95300781 5.90207031 -2.9921875 5.9296875 C-1.51105469 5.96449219 -1.51105469 5.96449219 0 6 C0 4.02 0 2.04 0 0 Z " fill="#032A2B" transform="translate(205,311)"/>
<path d="M0 0 C2 2 2 2 2.125 5.125 C2.08375 6.07375 2.0425 7.0225 2 8 C3.93835966 7.93989582 5.87584491 7.85108283 7.8125 7.75 C9.43091797 7.68039063 9.43091797 7.68039063 11.08203125 7.609375 C14.11744232 7.27045978 14.11744232 7.27045978 15.88671875 4.953125 C16.43779297 3.98632812 16.43779297 3.98632812 17 3 C17 4.98 17 6.96 17 9 C11.26039225 9.83485204 5.80058027 10.09063407 0 10 C0 6.7 0 3.4 0 0 Z " fill="#3C0407" transform="translate(113,221)"/>
<path d="M0 0 C2.31 0 4.62 0 7 0 C6.125 5.875 6.125 5.875 5 7 C3.33382885 7.04063832 1.66611905 7.042721 0 7 C0 4.69 0 2.38 0 0 Z " fill="#D2000A" transform="translate(147,145)"/>
<path d="M0 0 C1.32 0.33 2.64 0.66 4 1 C3.01 1 2.02 1 1 1 C1.33 10.9 1.66 20.8 2 31 C2.66 31.33 3.32 31.66 4 32 C4 32.66 4 33.32 4 34 C2.68 34 1.36 34 0 34 C0 22.78 0 11.56 0 0 Z " fill="#6EEAE9" transform="translate(187,277)"/>
<path d="M0 0 C2.31 0 4.62 0 7 0 C7 0.33 7 0.66 7 1 C5.02 1 3.04 1 1 1 C1 3.64 1 6.28 1 9 C-0.98 9 -2.96 9 -5 9 C-5 11.31 -5 13.62 -5 16 C-5.99 15.67 -6.98 15.34 -8 15 C-7.125 8.125 -7.125 8.125 -6 7 C-4.00041636 6.95919217 -1.99954746 6.95745644 0 7 C0 4.69 0 2.38 0 0 Z " fill="#8C080E" transform="translate(153,120)"/>
<path d="M0 0 C5.61 0 11.22 0 17 0 C16.67 1.32 16.34 2.64 16 4 C16.99 4 17.98 4 19 4 C19 4.99 19 5.98 19 7 C17.35 7 15.7 7 14 7 C14 5.02 14 3.04 14 1 C9.38 1 4.76 1 0 1 C0 0.67 0 0.34 0 0 Z " fill="#0F4446" transform="translate(191,270)"/>
<path d="M0 0 C2.64 0 5.28 0 8 0 C8 0.66 8 1.32 8 2 C6.02 2 4.04 2 2 2 C2.061875 3.423125 2.061875 3.423125 2.125 4.875 C2 8 2 8 0 10 C-3.625 10.125 -3.625 10.125 -7 10 C-7 9.67 -7 9.34 -7 9 C-5.02 8.67 -3.04 8.34 -1 8 C-0.67 5.36 -0.34 2.72 0 0 Z " fill="#DF1625" transform="translate(122,169)"/>
<path d="M0 0 C0.99 0.495 0.99 0.495 2 1 C2 2.32 2 3.64 2 5 C6.95 5.33 11.9 5.66 17 6 C17 6.33 17 6.66 17 7 C11.06975197 7.97040422 5.93609666 7.89316269 0 7 C0 4.69 0 2.38 0 0 Z " fill="#98080E" transform="translate(324,196)"/>
<path d="M0 0 C7.92 0 15.84 0 24 0 C24 1.32 24 2.64 24 4 C23.01 3.67 22.02 3.34 21 3 C21 2.34 21 1.68 21 1 C14.07 1 7.14 1 0 1 C0 0.67 0 0.34 0 0 Z " fill="#686868" transform="translate(312,231)"/>
<path d="M0 0 C1.65 0 3.3 0 5 0 C5 0.99 5 1.98 5 3 C1.99686252 4.50156874 -0.79067522 4.09281204 -4.125 4.0625 C-5.40632812 4.05347656 -6.68765625 4.04445313 -8.0078125 4.03515625 C-9.48894531 4.01775391 -9.48894531 4.01775391 -11 4 C-11 3.67 -11 3.34 -11 3 C-7.7 3 -4.4 3 -1 3 C-0.67 2.01 -0.34 1.02 0 0 Z " fill="#02110D" transform="translate(202,266)"/>
<path d="M0 0 C0.66 0 1.32 0 2 0 C2.33 1.98 2.66 3.96 3 6 C0.03 6 -2.94 6 -6 6 C-5.34 5.67 -4.68 5.34 -4 5 C-4 4.34 -4 3.68 -4 3 C-3.01 3 -2.02 3 -1 3 C-0.67 2.01 -0.34 1.02 0 0 Z " fill="#500A0C" transform="translate(136,217)"/>
<path d="M0 0 C0.66 0 1.32 0 2 0 C2 2.31 2 4.62 2 7 C-1.63 7 -5.26 7 -9 7 C-8.67 6.34 -8.34 5.68 -8 5 C-5.36 5 -2.72 5 0 5 C0 3.35 0 1.7 0 0 Z " fill="#920911" transform="translate(179,196)"/>
<path d="M0 0 C1.99954746 -0.04254356 4.00041636 -0.04080783 6 0 C7 1 7 1 7.0625 4.5625 C7.041875 5.696875 7.02125 6.83125 7 8 C4.36 8 1.72 8 -1 8 C-0.34 7.34 0.32 6.68 1 6 C2.32 6 3.64 6 5 6 C4.80528889 4.05000871 4.80528889 4.05000871 4 2 C2.0162233 0.71563266 2.0162233 0.71563266 0 0 Z " fill="#B3010A" transform="translate(131,161)"/>
<path d="M0 0 C0.33 0.99 0.66 1.98 1 3 C6.28 3 11.56 3 17 3 C17.33 4.65 17.66 6.3 18 8 C16.68 7.67 15.36 7.34 14 7 C14 6.34 14 5.68 14 5 C7.07 4.505 7.07 4.505 0 4 C0 2.68 0 1.36 0 0 Z " fill="#5D5B50" transform="translate(366,227)"/>
<path d="M0 0 C4.62 0 9.24 0 14 0 C14 0.33 14 0.66 14 1 C13.37351563 1.03738281 12.74703125 1.07476562 12.1015625 1.11328125 C11.28429687 1.17902344 10.46703125 1.24476563 9.625 1.3125 C8.40683594 1.39951172 8.40683594 1.39951172 7.1640625 1.48828125 C4.62078662 1.82990528 4.62078662 1.82990528 3 5 C2.01 5 1.02 5 0 5 C0 3.35 0 1.7 0 0 Z " fill="#610000" transform="translate(155,204)"/>
<path d="M0 0 C3.3 0 6.6 0 10 0 C10 2.31 10 4.62 10 7 C8 6 8 6 7 3 C3.48809191 1.77030122 3.48809191 1.77030122 0 1 C0 0.67 0 0.34 0 0 Z " fill="#920913" transform="translate(373,169)"/>
<path d="M0 0 C0.66 0.33 1.32 0.66 2 1 C1.67 2.65 1.34 4.3 1 6 C-0.65 6.33 -2.3 6.66 -4 7 C-4 5.35 -4 3.7 -4 2 C-2.125 0.9375 -2.125 0.9375 0 0 Z " fill="#F90919" transform="translate(355,162)"/>
<path d="M0 0 C2.31 0 4.62 0 7 0 C7 2.64 7 5.28 7 8 C6.34 8 5.68 8 5 8 C5 6.02 5 4.04 5 2 C3.35 2 1.7 2 0 2 C0 1.34 0 0.68 0 0 Z " fill="#890C13" transform="translate(368,153)"/>
<path d="M0 0 C1.134375 0.020625 2.26875 0.04125 3.4375 0.0625 C3.4375 0.3925 3.4375 0.7225 3.4375 1.0625 C1.4575 1.7225 -0.5225 2.3825 -2.5625 3.0625 C-2.8925 5.0425 -3.2225 7.0225 -3.5625 9.0625 C-6.2025 9.0625 -8.8425 9.0625 -11.5625 9.0625 C-9.75 8 -9.75 8 -7.5625 7.0625 C-6.5725 7.3925 -5.5825 7.7225 -4.5625 8.0625 C-4.583125 6.928125 -4.60375 5.79375 -4.625 4.625 C-4.54525862 0.07974138 -4.54525862 0.07974138 0 0 Z " fill="#E70713" transform="translate(158.5625,135.9375)"/>
<path d="M0 0 C1.65 0 3.3 0 5 0 C4.67 2.31 4.34 4.62 4 7 C2.68 6.67 1.36 6.34 0 6 C0 4.02 0 2.04 0 0 Z " fill="#051215" transform="translate(314,311)"/>
<path d="M0 0 C0 0.33 0 0.66 0 1 C-2.31 1 -4.62 1 -7 1 C-7 3.64 -7 6.28 -7 9 C-7.33 9 -7.66 9 -8 9 C-8.33 6.69 -8.66 4.38 -9 2 C-10.32 1.67 -11.64 1.34 -13 1 C-8.31506124 -1.48887372 -5.0555786 -0.85687773 0 0 Z " fill="#363636" transform="translate(358,340)"/>
<path d="M0 0 C0 1.65 0 3.3 0 5 C-1.98 5 -3.96 5 -6 5 C-6 4.01 -6 3.02 -6 2 C-2.25 0 -2.25 0 0 0 Z " fill="#AE020B" transform="translate(146,154)"/>
<path d="M0 0 C0.33 0 0.66 0 1 0 C1 2.31 1 4.62 1 7 C-0.98 7 -2.96 7 -5 7 C-4.19152271 5.83054208 -3.37810888 4.66449539 -2.5625 3.5 C-2.11003906 2.8503125 -1.65757812 2.200625 -1.19140625 1.53125 C-0.79824219 1.0259375 -0.40507812 0.520625 0 0 Z " fill="#4D3835" transform="translate(374,223)"/>
<path d="M0 0 C2.475 0.495 2.475 0.495 5 1 C4.1875 2.9375 4.1875 2.9375 3 5 C2.01 5.33 1.02 5.66 0 6 C0 4.02 0 2.04 0 0 Z " fill="#484747" transform="translate(367,224)"/>
<path d="M0 0 C1.98 0 3.96 0 6 0 C6.33 0.99 6.66 1.98 7 3 C4.69 3 2.38 3 0 3 C0 2.01 0 1.02 0 0 Z " fill="#460A0D" transform="translate(367,220)"/>
<path d="M0 0 C1.32 0 2.64 0 4 0 C3.67 1.65 3.34 3.3 3 5 C2.01 5 1.02 5 0 5 C0 3.35 0 1.7 0 0 Z " fill="#930207" transform="translate(146,154)"/>
<path d="M0 0 C0 2.31 0 4.62 0 7 C-0.66 7 -1.32 7 -2 7 C-2.33 5.02 -2.66 3.04 -3 1 C-1 0 -1 0 0 0 Z " fill="#092425" transform="translate(236,337)"/>
<path d="M0 0 C1.65 0 3.3 0 5 0 C4.67 0.66 4.34 1.32 4 2 C3.34 2 2.68 2 2 2 C2 3.32 2 4.64 2 6 C1.34 6 0.68 6 0 6 C0 4.02 0 2.04 0 0 Z " fill="#0E3D3F" transform="translate(205,311)"/>
<path d="M0 0 C1.20628008 2.33214148 2.1654738 4.49642139 3 7 C3.99 7.33 4.98 7.66 6 8 C4.33388095 8.042721 2.66617115 8.04063832 1 8 C0 7 0 7 -0.0625 3.4375 C-0.041875 2.303125 -0.02125 1.16875 0 0 Z " fill="#B60005" transform="translate(359,161)"/>
<path d="M0 0 C2.31 0 4.62 0 7 0 C6.38125 0.20625 5.7625 0.4125 5.125 0.625 C2.15346355 2.54775888 1.86975341 4.66594527 1 8 C0.67 8 0.34 8 0 8 C0 5.36 0 2.72 0 0 Z " fill="#DF010B" transform="translate(201,99)"/>
</svg>
