<?xml version="1.0" encoding="UTF-8"?>
<svg version="1.1" xmlns="http://www.w3.org/2000/svg" width="1254" height="1254">
<path d="M0 0 C413.82 0 827.64 0 1254 0 C1254 413.82 1254 827.64 1254 1254 C840.18 1254 426.36 1254 0 1254 C0 840.18 0 426.36 0 0 Z " fill="#000000" transform="translate(0,0)"/>
<path d="M0 0 C61.05 0 122.1 0 185 0 C185 6.93 185 13.86 185 21 C199.19 21 213.38 21 228 21 C228 27.6 228 34.2 228 41 C241.53 41 255.06 41 269 41 C269 47.6 269 54.2 269 61 C275.6 61 282.2 61 289 61 C289 67.27 289 73.54 289 80 C294.94 80 300.88 80 307 80 C307 85.61 307 91.22 307 97 C311.95 97 316.9 97 322 97 C322 102.94 322 108.88 322 115 C327.28 115 332.56 115 338 115 C338 121.27 338 127.54 338 134 C344.27 134 350.54 134 357 134 C357 140.6 357 147.2 357 154 C363.27 154 369.54 154 376 154 C376 168.19 376 182.38 376 197 C382.93 197 389.86 197 397 197 C397 209.87 397 222.74 397 236 C403.27 236 409.54 236 416 236 C416 242.93 416 249.86 416 257 C422.6 257 429.2 257 436 257 C436 301.22 436 345.44 436 391 C429.4 391 422.8 391 416 391 C416.00092179 392.39058593 416.00184359 393.78117186 416.00279331 395.21389675 C416.02442911 428.18864572 416.04092945 461.16339315 416.05106533 494.13814765 C416.05231611 498.192603 416.05361042 502.24705834 416.05493164 506.30151367 C416.05519395 507.10871735 416.05545626 507.91592103 416.05572652 508.74758542 C416.06008343 521.83516173 416.06797109 534.92273366 416.0771528 548.01030736 C416.08648877 561.42920917 416.09205549 574.84810869 416.09408849 588.26701361 C416.09546384 596.55396531 416.09981505 604.84090466 416.10791647 613.12785257 C416.11318323 618.80268385 416.11480446 624.4775087 416.11350138 630.15234225 C416.11285789 633.43138232 416.11441518 636.71039602 416.11920547 639.98943329 C416.12413537 643.53614031 416.1230009 647.08279323 416.12025452 650.62950134 C416.12316736 651.67714454 416.1260802 652.72478774 416.12908131 653.8041777 C416.12709026 654.74668556 416.12509921 655.68919341 416.12304783 656.66026211 C416.12361741 657.8899864 416.12361741 657.8899864 416.1241985 659.1445536 C416 661 416 661 415 662 C408.4 662 401.8 662 395 662 C395 676.52 395 691.04 395 706 C387.74 706 380.48 706 373 706 C373 712.27 373 718.54 373 725 C366.73 725 360.46 725 354 725 C354 731.27 354 737.54 354 744 C347.4 744 340.8 744 334 744 C334 750.6 334 757.2 334 764 C321.13 764 308.26 764 295 764 C295 770.27 295 776.54 295 783 C281.14 783 267.28 783 253 783 C253 789.6 253 796.2 253 803 C143.77 803 34.54 803 -78 803 C-78 796.4 -78 789.8 -78 783 C-91.53 783 -105.06 783 -119 783 C-119 776.73 -119 770.46 -119 764 C-132.2 764 -145.4 764 -159 764 C-159 757.4 -159 750.8 -159 744 C-165.27 744 -171.54 744 -178 744 C-178 737.73 -178 731.46 -178 725 C-184.27 725 -190.54 725 -197 725 C-197 718.73 -197 712.46 -197 706 C-203.93 706 -210.86 706 -218 706 C-218 691.15 -218 676.3 -218 661 C-225.26 661 -232.52 661 -240 661 C-240 571.9 -240 482.8 -240 391 C-246.6 391 -253.2 391 -260 391 C-260 346.78 -260 302.56 -260 257 C-253.07 257 -246.14 257 -239 257 C-239 249.74 -239 242.48 -239 235 C-232.07 235 -225.14 235 -218 235 C-218.165 232.628125 -218.33 230.25625 -218.5 227.8125 C-219.15650796 217.53645528 -219.06817713 207.29474588 -219 197 C-212.07 197 -205.14 197 -198 197 C-198 182.81 -198 168.62 -198 154 C-191.4 154 -184.8 154 -178 154 C-178 147.4 -178 140.8 -178 134 C-172.06 134 -166.12 134 -160 134 C-160 127.73 -160 121.46 -160 115 C-154.39 115 -148.78 115 -143 115 C-143 109.06 -143 103.12 -143 97 C-138.05 97 -133.1 97 -128 97 C-128 91.39 -128 85.78 -128 80 C-122.06 80 -116.12 80 -110 80 C-110 73.73 -110 67.46 -110 61 C-103.73 61 -97.46 61 -91 61 C-91 54.4 -91 47.8 -91 41 C-77.8 41 -64.6 41 -51 41 C-51 34.4 -51 27.8 -51 21 C-34.17 21 -17.34 21 0 21 C0 14.07 0 7.14 0 0 Z " fill="#A70009" transform="translate(545,187)"/>
<path d="M0 0 C138.27 0 276.54 0 419 0 C419 6.6 419 13.2 419 20 C431.21 20 443.42 20 456 20 C456 26.6 456 33.2 456 40 C462.27 40 468.54 40 475 40 C475 46.6 475 53.2 475 60 C480.94 60 486.88 60 493 60 C493 119.4 493 178.8 493 240 C487.06 240 481.12 240 475 240 C475 251.22 475 262.44 475 274 C468.4 274 461.8 274 455 274 C455 280.6 455 287.2 455 294 C448.73 294 442.46 294 436 294 C436 299.94 436 305.88 436 312 C421.15 312 406.3 312 391 312 C391 318.93 391 325.86 391 333 C369.88 333 348.76 333 327 333 C327 338.94 327 344.88 327 351 C297.07941251 351.0225849 267.15882596 351.04049799 237.23823181 351.05106533 C233.70952106 351.05231611 230.18081033 351.05361042 226.65209961 351.05493164 C225.94956745 351.05519395 225.24703529 351.05545626 224.52321427 351.05572652 C213.13310082 351.06008329 201.74299239 351.06797087 190.35288192 351.0771528 C178.67419914 351.08648915 166.9955193 351.09198067 155.31683296 351.09408849 C148.75347426 351.09539605 142.19012698 351.09848469 135.62677193 351.10573006 C129.45699264 351.11248616 123.28722953 351.1146178 117.1174469 351.11310768 C114.8457728 351.11338419 112.5740982 351.11539173 110.30242729 351.11920547 C107.215519 351.12413633 104.12867286 351.12300055 101.04176331 351.12025452 C100.1303033 351.12316736 99.21884329 351.1260802 98.27976328 351.12908131 C92.11412121 351.11412121 92.11412121 351.11412121 91 350 C91 344.39 91 338.78 91 333 C69.88 333 48.76 333 27 333 C27 326.07 27 319.14 27 312 C12.48 312 -2.04 312 -17 312 C-17 306.06 -17 300.12 -17 294 C-23.6 294 -30.2 294 -37 294 C-37 287.4 -37 280.8 -37 274 C-43.27 274 -49.54 274 -56 274 C-56 262.78 -56 251.56 -56 240 C-62.27 240 -68.54 240 -75 240 C-75 180.6 -75 121.2 -75 60 C-68.73 60 -62.46 60 -56 60 C-56 53.4 -56 46.8 -56 40 C-49.73 40 -43.46 40 -37 40 C-37 33.4 -37 26.8 -37 20 C-24.79 20 -12.58 20 0 20 C0 13.4 0 6.8 0 0 Z " fill="#090909" transform="translate(424,581)"/>
<path d="M0 0 C133.98 0 267.96 0 406 0 C406 6.93 406 13.86 406 21 C420.19 21 434.38 21 449 21 C449 27.93 449 34.86 449 42 C462.2 42 475.4 42 489 42 C489 50.58 489 59.16 489 68 C495.6 68 502.2 68 509 68 C509 75.26 509 82.52 509 90 C515.93 90 522.86 90 530 90 C530 172.17 530 254.34 530 339 C523.4 339 516.8 339 510 339 C510 353.52 510 368.04 510 383 C502.74 383 495.48 383 488 383 C488 389.27 488 395.54 488 402 C481.73 402 475.46 402 469 402 C469 408.27 469 414.54 469 421 C462.4 421 455.8 421 449 421 C449 427.6 449 434.2 449 441 C436.13 441 423.26 441 410 441 C410 447.27 410 453.54 410 460 C396.14 460 382.28 460 368 460 C368 466.6 368 473.2 368 480 C258.77 480 149.54 480 37 480 C37 473.4 37 466.8 37 460 C23.47 460 9.94 460 -4 460 C-4 453.73 -4 447.46 -4 441 C-17.2 441 -30.4 441 -44 441 C-44 434.4 -44 427.8 -44 421 C-50.27 421 -56.54 421 -63 421 C-63 414.73 -63 408.46 -63 402 C-69.27 402 -75.54 402 -82 402 C-82 395.73 -82 389.46 -82 383 C-88.93 383 -95.86 383 -103 383 C-103 368.15 -103 353.3 -103 338 C-109.93 338 -116.86 338 -124 338 C-124 248.9 -124 159.8 -124 68 C-110.14 68 -96.28 68 -82 68 C-82 59.42 -82 50.84 -82 42 C-68.8 42 -55.6 42 -42 42 C-42 35.07 -42 28.14 -42 21 C-28.14 21 -14.28 21 0 21 C0 14.07 0 7.14 0 0 Z M-6 71 C-6 77.6 -6 84.2 -6 91 C-18.21 91 -30.42 91 -43 91 C-43 97.6 -43 104.2 -43 111 C-49.27 111 -55.54 111 -62 111 C-62 117.6 -62 124.2 -62 131 C-68.27 131 -74.54 131 -81 131 C-81 190.4 -81 249.8 -81 311 C-74.73 311 -68.46 311 -62 311 C-62 322.22 -62 333.44 -62 345 C-55.73 345 -49.46 345 -43 345 C-43 351.6 -43 358.2 -43 365 C-36.4 365 -29.8 365 -23 365 C-23 370.94 -23 376.88 -23 383 C-8.48 383 6.04 383 21 383 C21 389.93 21 396.86 21 404 C42.12 404 63.24 404 85 404 C85 409.61 85 415.22 85 421 C86.90955361 422.90955361 89.73867822 422.12291571 92.27976328 422.12908131 C93.19122329 422.12616847 94.1026833 422.12325563 95.04176331 422.12025452 C96.00225254 422.12110894 96.96274176 422.12196337 97.95233673 422.12284368 C101.19683999 422.12450141 104.44129246 422.11897234 107.68579102 422.11352539 C110.00118 422.11324356 112.31656908 422.11340118 114.63195801 422.1139679 C120.93955663 422.11425602 127.24713642 422.10835696 133.55473065 422.10139394 C140.13845046 422.09516279 146.72217065 422.09455679 153.30589294 422.09336853 C164.3633558 422.09077542 175.42081202 422.08435322 186.47827148 422.07543945 C197.86954717 422.06626611 209.26082098 422.0591849 220.65209961 422.05493164 C221.35378085 422.05466892 222.05546208 422.05440619 222.77840639 422.05413551 C226.29839249 422.05283051 229.8183786 422.05156679 233.33836472 422.05032361 C262.55891446 422.03995005 291.77945682 422.02205649 321 422 C321 416.06 321 410.12 321 404 C342.12 404 363.24 404 385 404 C385 397.07 385 390.14 385 383 C399.85 383 414.7 383 430 383 C430 377.06 430 371.12 430 365 C436.27 365 442.54 365 449 365 C449 358.4 449 351.8 449 345 C455.6 345 462.2 345 469 345 C469 333.78 469 322.56 469 311 C474.94 311 480.88 311 487 311 C487 251.6 487 192.2 487 131 C481.06 131 475.12 131 469 131 C469 124.4 469 117.8 469 111 C462.73 111 456.46 111 450 111 C450 104.4 450 97.8 450 91 C437.79 91 425.58 91 413 91 C413 84.4 413 77.8 413 71 C274.73 71 136.46 71 -6 71 Z " fill="#D4D3D3" transform="translate(430,510)"/>
<path d="M0 0 C61.05 0 122.1 0 185 0 C185 6.93 185 13.86 185 21 C199.19 21 213.38 21 228 21 C228 34.2 228 47.4 228 61 C234.6 61 241.2 61 248 61 C248 72.55 248 84.1 248 96 C254.93 96 261.86 96 269 96 C269 115.8 269 135.6 269 156 C153.83 156 38.66 156 -80 156 C-80 162.6 -80 169.2 -80 176 C-112.01 176 -144.02 176 -177 176 C-177 182.93 -177 189.86 -177 197 C-183.6 197 -190.2 197 -197 197 C-197 183.14 -197 169.28 -197 155 C-190.73 155 -184.46 155 -178 155 C-178 148.07 -178 141.14 -178 134 C-172.06 134 -166.12 134 -160 134 C-160 127.73 -160 121.46 -160 115 C-154.39 115 -148.78 115 -143 115 C-143 109.06 -143 103.12 -143 97 C-138.05 97 -133.1 97 -128 97 C-128 91.39 -128 85.78 -128 80 C-122.06 80 -116.12 80 -110 80 C-110 73.73 -110 67.46 -110 61 C-103.73 61 -97.46 61 -91 61 C-91 54.4 -91 47.8 -91 41 C-77.8 41 -64.6 41 -51 41 C-51 34.4 -51 27.8 -51 21 C-34.17 21 -17.34 21 0 21 C0 14.07 0 7.14 0 0 Z " fill="#D0000A" transform="translate(545,187)"/>
<path d="M0 0 C13.2 0 26.4 0 40 0 C40 6.93 40 13.86 40 21 C33.73 21 27.46 21 21 21 C20.67 22.98 20.34 24.96 20 27 C13.4 27 6.8 27 0 27 C0 33.93 0 40.86 0 48 C-6.93 48 -13.86 48 -21 48 C-21 124.23 -21 200.46 -21 279 C-14.4 279 -7.8 279 -1 279 C0.04367959 293.35059443 0.09935839 307.6151138 0 322 C6.27 322 12.54 322 19 322 C19 328.27 19 334.54 19 341 C25.27 341 31.54 341 38 341 C38 347.27 38 353.54 38 360 C43.28 360 48.56 360 54 360 C54 366.27 54 372.54 54 379 C67.86 379 81.72 379 96 379 C96 385.6 96 392.2 96 399 C115.14 399 134.28 399 154 399 C154 405.27 154 411.54 154 418 C243.43 418 332.86 418 425 418 C425 411.73 425 405.46 425 399 C440.84 399 456.68 399 473 399 C473 392.4 473 385.8 473 379 C488.51 379 504.02 379 520 379 C520 373.06 520 367.12 520 361 C523.96 361 527.92 361 532 361 C532 354.4 532 347.8 532 341 C538.27 341 544.54 341 551 341 C551 334.73 551 328.46 551 322 C557.6 322 564.2 322 571 322 C571 307.81 571 293.62 571 279 C577.93 279 584.86 279 592 279 C591.67 202.77 591.34 126.54 591 48 C597.93 48 604.86 48 612 48 C612 130.17 612 212.34 612 297 C605.4 297 598.8 297 592 297 C592 311.52 592 326.04 592 341 C584.74 341 577.48 341 570 341 C570 347.27 570 353.54 570 360 C563.73 360 557.46 360 551 360 C551 366.27 551 372.54 551 379 C544.4 379 537.8 379 531 379 C531 385.6 531 392.2 531 399 C518.13 399 505.26 399 492 399 C492 405.27 492 411.54 492 418 C478.14 418 464.28 418 450 418 C450 424.6 450 431.2 450 438 C340.77 438 231.54 438 119 438 C119 431.4 119 424.8 119 418 C105.47 418 91.94 418 78 418 C78 411.73 78 405.46 78 399 C64.8 399 51.6 399 38 399 C38 392.4 38 385.8 38 379 C31.73 379 25.46 379 19 379 C19 372.73 19 366.46 19 360 C12.73 360 6.46 360 0 360 C0 353.73 0 347.46 0 341 C-6.93 341 -13.86 341 -21 341 C-21 326.15 -21 311.3 -21 296 C-27.93 296 -34.86 296 -42 296 C-42 206.9 -42 117.8 -42 26 C-28.14 26 -14.28 26 0 26 C0 17.42 0 8.84 0 0 Z " fill="#999898" transform="translate(348,552)"/>
<path d="M0 0 C22.11 0 44.22 0 67 0 C67 34.65 67 69.3 67 105 C65.68 105 64.36 105 63 105 C63 111.93 63 118.86 63 126 C55.41 126 47.82 126 40 126 C40 132.93 40 139.86 40 147 C26.14 147 12.28 147 -2 147 C-2 153.93 -2 160.86 -2 168 C-15.2 168 -28.4 168 -42 168 C-42 176.58 -42 185.16 -42 194 C-55.86 194 -69.72 194 -84 194 C-84 283.1 -84 372.2 -84 464 C-84.33 464 -84.66 464 -85 464 C-85 374.9 -85 285.8 -85 194 C-91.6 194 -98.2 194 -105 194 C-105 149.78 -105 105.56 -105 60 C-98.07 60 -91.14 60 -84 60 C-84 53.07 -84 46.14 -84 39 C-70.8 39 -57.6 39 -44 39 C-44.495 30.09 -44.495 30.09 -45 21 C-50.94 20.67 -56.88 20.34 -63 20 C-63 13.73 -63 7.46 -63 1 C-56.4 1 -49.8 1 -43 1 C-43 6.94 -43 12.88 -43 19 C-28.81 19 -14.62 19 0 19 C0 12.73 0 6.46 0 0 Z " fill="#D0000A" transform="translate(390,384)"/>
<path d="M0 0 C6.93 0 13.86 0 21 0 C21 41.91 21 83.82 21 127 C27.93 127 34.86 127 42 127 C42 133.6 42 140.2 42 147 C-77.13 147 -196.26 147 -319 147 C-319 140.07 -319 133.14 -319 126 C-317.68 126 -316.36 126 -315 126 C-315 97.95 -315 69.9 -315 41 C-307.08 41 -299.16 41 -291 41 C-291 69.05 -291 97.1 -291 126 C-266.58 126 -242.16 126 -217 126 C-217 119.4 -217 112.8 -217 106 C-177.73 106 -138.46 106 -98 106 C-98 77.95 -98 49.9 -98 21 C-89.42 21 -80.84 21 -72 21 C-72 49.05 -72 77.1 -72 106 C-56.53583372 105.67346469 -56.53583372 105.67346469 -41.07177734 105.34179688 C-39.0765011 105.30060162 -37.08122134 105.25957593 -35.0859375 105.21875 C-34.11889893 105.1971582 -33.15186035 105.17556641 -32.15551758 105.15332031 C-21.43217428 104.93829027 -10.73377216 105 0 105 C0 70.35 0 35.7 0 0 Z " fill="#A50009" transform="translate(772,363)"/>
<path d="M0 0 C13.91665632 -0.03101687 27.83331369 -0.05112205 41.75 -0.0625 C42.78952694 -0.06335602 43.82905388 -0.06421204 44.90008163 -0.06509399 C75.54112373 -0.08734901 106.17453107 0.05787642 136.8125 0.5 C138.05627663 0.51793673 138.05627663 0.51793673 139.32518005 0.53623581 C149.21697419 0.67985738 159.10853995 0.83493014 169 1 C169 7.93 169 14.86 169 22 C175.93 22 182.86 22 190 22 C190 49.72 190 77.44 190 106 C164.71128731 107.14948694 164.71128731 107.14948694 154.9140625 107.09765625 C153.95330811 107.09664917 152.99255371 107.09564209 152.00268555 107.09460449 C148.54344421 107.08952262 145.08422039 107.07556719 141.625 107.0625 C133.82875 107.041875 126.0325 107.02125 118 107 C118 78.95 118 50.9 118 22 C109.42 22 100.84 22 92 22 C92 50.05 92 78.1 92 107 C62.3 107 32.6 107 2 107 C2 78.95 2 50.9 2 22 C1.01 22 0.02 22 -1 22 C-1.02895225 18.70835171 -1.0467823 15.41673601 -1.0625 12.125 C-1.07506836 10.71927734 -1.07506836 10.71927734 -1.08789062 9.28515625 C-1.09111328 8.38925781 -1.09433594 7.49335938 -1.09765625 6.5703125 C-1.10289307 5.74289551 -1.10812988 4.91547852 -1.11352539 4.06298828 C-1 2 -1 2 0 0 Z " fill="#CE0009" transform="translate(582,362)"/>
<path d="M0 0 C0.9583374 0.00523682 1.9166748 0.01047363 2.90405273 0.01586914 C4.45576172 0.02070313 4.45576172 0.02070313 6.03881836 0.02563477 C7.12743164 0.03401367 8.21604492 0.04239258 9.33764648 0.05102539 C10.97636719 0.05779297 10.97636719 0.05779297 12.64819336 0.06469727 C15.3572008 0.07652699 18.06618028 0.09446308 20.77514648 0.11352539 C20.77514648 6.38352539 20.77514648 12.65352539 20.77514648 19.11352539 C19.78514648 19.11352539 18.79514648 19.11352539 17.77514648 19.11352539 C17.77514648 54.42352539 17.77514648 89.73352539 17.77514648 126.11352539 C24.70514648 126.11352539 31.63514648 126.11352539 38.77514648 126.11352539 C38.77514648 132.71352539 38.77514648 139.31352539 38.77514648 146.11352539 C45.37514648 146.11352539 51.97514648 146.11352539 58.77514648 146.11352539 C58.77514648 139.51352539 58.77514648 132.91352539 58.77514648 126.11352539 C65.70514648 126.11352539 72.63514648 126.11352539 79.77514648 126.11352539 C79.77514648 104.33352539 79.77514648 82.55352539 79.77514648 60.11352539 C73.17514648 60.11352539 66.57514648 60.11352539 59.77514648 60.11352539 C59.77514648 46.91352539 59.77514648 33.71352539 59.77514648 20.11352539 C67.03514648 20.11352539 74.29514648 20.11352539 81.77514648 20.11352539 C81.77514648 13.84352539 81.77514648 7.57352539 81.77514648 1.11352539 C75.50514648 1.11352539 69.23514648 1.11352539 62.77514648 1.11352539 C62.77514648 0.78352539 62.77514648 0.45352539 62.77514648 0.11352539 C69.37514648 0.11352539 75.97514648 0.11352539 82.77514648 0.11352539 C82.77514648 12.98352539 82.77514648 25.85352539 82.77514648 39.11352539 C89.04514648 39.11352539 95.31514648 39.11352539 101.77514648 39.11352539 C101.77514648 46.04352539 101.77514648 52.97352539 101.77514648 60.11352539 C108.37514648 60.11352539 114.97514648 60.11352539 121.77514648 60.11352539 C121.77514648 104.33352539 121.77514648 148.55352539 121.77514648 194.11352539 C115.17514648 194.11352539 108.57514648 194.11352539 101.77514648 194.11352539 C101.77514648 283.21352539 101.77514648 372.31352539 101.77514648 464.11352539 C101.44514648 464.11352539 101.11514648 464.11352539 100.77514648 464.11352539 C100.77514648 382.27352539 100.77514648 300.43352539 100.77514648 216.11352539 C93.84514648 216.11352539 86.91514648 216.11352539 79.77514648 216.11352539 C79.77514648 208.85352539 79.77514648 201.59352539 79.77514648 194.11352539 C73.17514648 194.11352539 66.57514648 194.11352539 59.77514648 194.11352539 C59.77514648 185.53352539 59.77514648 176.95352539 59.77514648 168.11352539 C46.57514648 168.11352539 33.37514648 168.11352539 19.77514648 168.11352539 C19.77514648 161.18352539 19.77514648 154.25352539 19.77514648 147.11352539 C5.58514648 147.11352539 -8.60485352 147.11352539 -23.22485352 147.11352539 C-23.22485352 140.18352539 -23.22485352 133.25352539 -23.22485352 126.11352539 C-16.95485352 126.11352539 -10.68485352 126.11352539 -4.22485352 126.11352539 C-4.21454605 124.54973648 -4.20423859 122.98594757 -4.19361877 121.37477112 C-4.09607526 106.67361089 -3.9934193 91.97249656 -3.88551426 77.27140903 C-3.83016487 69.71253082 -3.77668011 62.15364789 -3.72753906 54.59472656 C-3.68471818 48.00869913 -3.63844558 41.4227067 -3.58797497 34.83673328 C-3.56135706 31.34741525 -3.53650366 27.85810423 -3.5157795 24.3687458 C-3.49261679 20.47967016 -3.46174993 16.59067709 -3.43017578 12.70166016 C-3.42442032 11.53641312 -3.41866486 10.37116608 -3.41273499 9.17060852 C-3.40294617 8.1174646 -3.39315735 7.06432068 -3.3830719 5.97926331 C-3.37661935 5.05839211 -3.3701668 4.13752092 -3.36351871 3.18874454 C-3.16952142 0.2854429 -2.91079561 0.14852628 0 0 Z " fill="#A40008" transform="translate(859.224853515625,383.886474609375)"/>
<path d="M0 0 C133.98 0 267.96 0 406 0 C406 6.93 406 13.86 406 21 C420.19 21 434.38 21 449 21 C449 27.93 449 34.86 449 42 C462.2 42 475.4 42 489 42 C489 50.58 489 59.16 489 68 C495.6 68 502.2 68 509 68 C509 75.26 509 82.52 509 90 C502.4 90 495.8 90 489 90 C489 83.07 489 76.14 489 69 C482.07 69 475.14 69 468 69 C468 67.02 468 65.04 468 63 C461.4 63 454.8 63 448 63 C447.67 62.34 447.34 61.68 447 61 C440.4 60.67 433.8 60.34 427 60 C427 54.06 427 48.12 427 42 C412.81 42 398.62 42 384 42 C384 35.07 384 28.14 384 21 C262.23 21 140.46 21 15 21 C15 27.93 15 34.86 15 42 C-3.81 42 -22.62 42 -42 42 C-42 35.07 -42 28.14 -42 21 C-28.14 21 -14.28 21 0 21 C0 14.07 0 7.14 0 0 Z " fill="#A6A5A5" transform="translate(430,510)"/>
<path d="M0 0 C34.32 0 68.64 0 104 0 C104 6.6 104 13.2 104 20 C83.21 20 62.42 20 41 20 C41 26.93 41 33.86 41 41 C30.11 41 19.22 41 8 41 C8 47.6 8 54.2 8 61 C-7.84 61 -23.68 61 -40 61 C-40 67.6 -40 74.2 -40 81 C-49.57 81 -59.14 81 -69 81 C-69 86.61 -69 92.22 -69 98 C-75.93 98 -82.86 98 -90 98 C-90 103.61 -90 109.22 -90 115 C-97.59 115 -105.18 115 -113 115 C-113 121.27 -113 127.54 -113 134 C-120.59 134 -128.18 134 -136 134 C-136 140.6 -136 147.2 -136 154 C-142.93 154 -149.86 154 -157 154 C-157 160.93 -157 167.86 -157 175 C-163.6 175 -170.2 175 -177 175 C-177 181.93 -177 188.86 -177 196 C-183.6 196 -190.2 196 -197 196 C-197 182.14 -197 168.28 -197 154 C-190.73 154 -184.46 154 -178 154 C-178 147.07 -178 140.14 -178 133 C-172.06 133 -166.12 133 -160 133 C-160 126.73 -160 120.46 -160 114 C-154.39 114 -148.78 114 -143 114 C-143 108.06 -143 102.12 -143 96 C-138.05 96 -133.1 96 -128 96 C-128 90.39 -128 84.78 -128 79 C-122.06 79 -116.12 79 -110 79 C-110 72.73 -110 66.46 -110 60 C-103.73 60 -97.46 60 -91 60 C-91 53.4 -91 46.8 -91 40 C-77.8 40 -64.6 40 -51 40 C-51 33.4 -51 26.8 -51 20 C-34.17 20 -17.34 20 0 20 C0 13.4 0 6.8 0 0 Z " fill="#F70918" transform="translate(545,188)"/>
<path d="M0 0 C8.25 0 16.5 0 25 0 C25 6.27 25 12.54 25 19 C31.6 19 38.2 19 45 19 C45 24.94 45 30.88 45 37 C51.27 37 57.54 37 64 37 C64 82.54 64 128.08 64 175 C57.4 175 50.8 175 44 175 C44 181.6 44 188.2 44 195 C29.48 195 14.96 195 0 195 C0 130.65 0 66.3 0 0 Z " fill="#969595" transform="translate(980,621)"/>
<path d="M0 0 C7.92 0 15.84 0 24 0 C24 64.02 24 128.04 24 194 C10.14 194 -3.72 194 -18 194 C-18 187.73 -18 181.46 -18 175 C-24.93 175 -31.86 175 -39 175 C-39 129.79 -39 84.58 -39 38 C-32.07 38 -25.14 38 -18 38 C-18 31.73 -18 25.46 -18 19 C-12.06 19 -6.12 19 0 19 C0 12.73 0 6.46 0 0 Z " fill="#949493" transform="translate(261,621)"/>
<path d="M0 0 C25.08 0 50.16 0 76 0 C76 41.58 76 83.16 76 126 C51.58 126 27.16 126 2 126 C2 97.95 2 69.9 2 41 C1.34 41 0.68 41 0 41 C0 27.47 0 13.94 0 0 Z " fill="#D0000A" transform="translate(479,363)"/>
<path d="M0 0 C6.93 0 13.86 0 21 0 C21 28.05 21 56.1 21 85 C34.2 85 47.4 85 61 85 C61 91.93 61 98.86 61 106 C47.14 106 33.28 106 19 106 C19 112.93 19 119.86 19 127 C5.8 127 -7.4 127 -21 127 C-21 135.58 -21 144.16 -21 153 C-34.86 153 -48.72 153 -63 153 C-63 242.1 -63 331.2 -63 423 C-63.33 423 -63.66 423 -64 423 C-64 333.9 -64 244.8 -64 153 C-70.6 153 -77.2 153 -84 153 C-84 144.42 -84 135.84 -84 127 C-76.74 127 -69.48 127 -62 127 C-62 98.62 -62 70.24 -62 41 C-55.4 41 -48.8 41 -42 41 C-42 62.12 -42 83.24 -42 105 C-35.07 105 -28.14 105 -21 105 C-21.03958027 98.79207086 -21.03958027 98.79207086 -21.09008789 92.58422852 C-21.09258545 91.81522217 -21.09508301 91.04621582 -21.09765625 90.25390625 C-21.10289307 89.46314697 -21.10812988 88.6723877 -21.11352539 87.85766602 C-21 86 -21 86 -20 85 C-13.4 85 -6.8 85 0 85 C0 56.95 0 28.9 0 0 Z " fill="#A40008" transform="translate(369,425)"/>
<path d="M0 0 C20.79 0 41.58 0 63 0 C63.04010881 27.38986024 63.04010881 27.38986024 63.04882812 39.12890625 C63.05478943 47.11670678 63.06181679 55.10449307 63.07543945 63.09228516 C63.08636134 69.53730266 63.09229644 75.98230778 63.09487724 82.42733383 C63.0967148 84.87750315 63.10030289 87.32767185 63.10573006 89.77783585 C63.11306418 93.22836994 63.11398578 96.67885381 63.11352539 100.12939453 C63.11712067 101.12634338 63.12071594 102.12329224 63.12442017 103.15045166 C63.11341244 110.85077985 62.55270421 118.26214104 62 126 C48.47 126 34.94 126 21 126 C21 119.4 21 112.8 21 106 C14.07 106 7.14 106 0 106 C0 71.02 0 36.04 0 0 Z " fill="#D0000A" transform="translate(793,384)"/>
<path d="M0 0 C119.13 0 238.26 0 361 0 C361 6.6 361 13.2 361 20 C241.87 20 122.74 20 0 20 C0 13.4 0 6.8 0 0 Z " fill="#4E0101" transform="translate(453,490)"/>
<path d="M0 0 C12.21 0 24.42 0 37 0 C37 5.28 37 10.56 37 16 C40.63 16 44.26 16 48 16 C48 44.05 48 72.1 48 101 C44.37 101 40.74 101 37 101 C37 106.28 37 111.56 37 117 C24.79 117 12.58 117 0 117 C0 111.39 0 105.78 0 100 C-3.63 100 -7.26 100 -11 100 C-11 72.28 -11 44.56 -11 16 C-7.37 16 -3.74 16 0 16 C0 10.72 0 5.44 0 0 Z " fill="#56F6F8" transform="translate(479,679)"/>
<path d="M0 0 C11.55 0 23.1 0 35 0 C35 5.28 35 10.56 35 16 C38.96 16 42.92 16 47 16 C47 44.05 47 72.1 47 101 C43.37 101 39.74 101 36 101 C36 106.28 36 111.56 36 117 C23.79 117 11.58 117 -1 117 C-1 111.72 -1 106.44 -1 101 C-4.63 101 -8.26 101 -12 101 C-12 72.95 -12 44.9 -12 16 C-8.04 16 -4.08 16 0 16 C0 10.72 0 5.44 0 0 Z " fill="#56F6F8" transform="translate(752,679)"/>
<path d="M0 0 C7.59 0 15.18 0 23 0 C23 6.93 23 13.86 23 21 C29.27 21 35.54 21 42 21 C42 27.6 42 34.2 42 41 C48.6 41 55.2 41 62 41 C62 62.78 62 84.56 62 107 C55.07 107 48.14 107 41 107 C41 113.6 41 120.2 41 127 C34.4 127 27.8 127 21 127 C21 120.4 21 113.8 21 107 C14.07 107 7.14 107 0 107 C0 71.69 0 36.38 0 0 Z " fill="#CF0009" transform="translate(877,403)"/>
<path d="M0 0 C22.11 0 44.22 0 67 0 C67 6.6 67 13.2 67 20 C51.49 20 35.98 20 20 20 C20 26.6 20 33.2 20 40 C6.14 40 -7.72 40 -22 40 C-22 46.6 -22 53.2 -22 60 C-42.46 60 -62.92 60 -84 60 C-84 53.07 -84 46.14 -84 39 C-70.8 39 -57.6 39 -44 39 C-44.495 30.09 -44.495 30.09 -45 21 C-50.94 20.67 -56.88 20.34 -63 20 C-63 13.73 -63 7.46 -63 1 C-56.4 1 -49.8 1 -43 1 C-43 6.94 -43 12.88 -43 19 C-28.81 19 -14.62 19 0 19 C0 12.73 0 6.46 0 0 Z " fill="#F90817" transform="translate(390,384)"/>
<path d="M0 0 C19.8 0 39.6 0 60 0 C60 6.93 60 13.86 60 21 C73.86 21 87.72 21 102 21 C102 29.58 102 38.16 102 47 C95.4 47 88.8 47 82 47 C82 136.1 82 225.2 82 317 C81.67 317 81.34 317 81 317 C81 235.16 81 153.32 81 69 C74.07 69 67.14 69 60 69 C60 61.74 60 54.48 60 47 C53.4 47 46.8 47 40 47 C40 38.42 40 29.84 40 21 C26.8 21 13.6 21 0 21 C0 14.07 0 7.14 0 0 Z " fill="#530103" transform="translate(879,531)"/>
<path d="M0 0 C0.9583374 0.00523682 1.9166748 0.01047363 2.90405273 0.01586914 C4.45576172 0.02070313 4.45576172 0.02070313 6.03881836 0.02563477 C7.12743164 0.03401367 8.21604492 0.04239258 9.33764648 0.05102539 C10.97636719 0.05779297 10.97636719 0.05779297 12.64819336 0.06469727 C15.3572008 0.07652699 18.06618028 0.09446308 20.77514648 0.11352539 C20.77514648 6.38352539 20.77514648 12.65352539 20.77514648 19.11352539 C19.78514648 19.11352539 18.79514648 19.11352539 17.77514648 19.11352539 C17.77514648 61.35352539 17.77514648 103.59352539 17.77514648 147.11352539 C4.24514648 147.11352539 -9.28485352 147.11352539 -23.22485352 147.11352539 C-23.22485352 140.18352539 -23.22485352 133.25352539 -23.22485352 126.11352539 C-16.95485352 126.11352539 -10.68485352 126.11352539 -4.22485352 126.11352539 C-4.21454605 124.54973648 -4.20423859 122.98594757 -4.19361877 121.37477112 C-4.09607526 106.67361089 -3.9934193 91.97249656 -3.88551426 77.27140903 C-3.83016487 69.71253082 -3.77668011 62.15364789 -3.72753906 54.59472656 C-3.68471818 48.00869913 -3.63844558 41.4227067 -3.58797497 34.83673328 C-3.56135706 31.34741525 -3.53650366 27.85810423 -3.5157795 24.3687458 C-3.49261679 20.47967016 -3.46174993 16.59067709 -3.43017578 12.70166016 C-3.42442032 11.53641312 -3.41866486 10.37116608 -3.41273499 9.17060852 C-3.40294617 8.1174646 -3.39315735 7.06432068 -3.3830719 5.97926331 C-3.37661935 5.05839211 -3.3701668 4.13752092 -3.36351871 3.18874454 C-3.16952142 0.2854429 -2.91079561 0.14852628 0 0 Z " fill="#A10008" transform="translate(859.224853515625,383.886474609375)"/>
<path d="M0 0 C7.92 0 15.84 0 24 0 C24 13.53 24 27.06 24 41 C17.07 41 10.14 41 3 41 C3 47.27 3 53.54 3 60 C-3.93 60 -10.86 60 -18 60 C-18 80.13 -18 100.26 -18 121 C-24.6 121 -31.2 121 -38 121 C-38 93.61 -38 66.22 -38 38 C-31.4 38 -24.8 38 -18 38 C-18 31.73 -18 25.46 -18 19 C-12.06 19 -6.12 19 0 19 C0 12.73 0 6.46 0 0 Z " fill="#E2E1E1" transform="translate(261,621)"/>
<path d="M0 0 C7.92 0 15.84 0 24 0 C24 6.27 24 12.54 24 19 C30.27 19 36.54 19 43 19 C43 25.27 43 31.54 43 38 C49.27 38 55.54 38 62 38 C62 65.39 62 92.78 62 121 C55.4 121 48.8 121 42 121 C42 100.87 42 80.74 42 60 C35.4 60 28.8 60 22 60 C21.505 50.595 21.505 50.595 21 41 C14.07 40.67 7.14 40.34 0 40 C0 26.8 0 13.6 0 0 Z " fill="#E5E4E4" transform="translate(981,621)"/>
<path d="M0 0 C20.13 0 40.26 0 61 0 C61 6.93 61 13.86 61 21 C47.8 21 34.6 21 21 21 C21 29.58 21 38.16 21 47 C7.14 47 -6.72 47 -21 47 C-21 136.1 -21 225.2 -21 317 C-21.33 317 -21.66 317 -22 317 C-22 227.9 -22 138.8 -22 47 C-28.6 47 -35.2 47 -42 47 C-42 38.42 -42 29.84 -42 21 C-28.14 21 -14.28 21 0 21 C0 14.07 0 7.14 0 0 Z " fill="#510708" transform="translate(327,531)"/>
<path d="M0 0 C0.33 0 0.66 0 1 0 C1 51.81 1 103.62 1 157 C7.93 157 14.86 157 22 157 C22 154.69 22 152.38 22 150 C35.53 150 49.06 150 63 150 C63 113.04 63 76.08 63 38 C56.73 38 50.46 38 44 38 C44 31.73 44 25.46 44 19 C44.33 19 44.66 19 45 19 C45 24.94 45 30.88 45 37 C51.27 37 57.54 37 64 37 C64 82.54 64 128.08 64 175 C57.4 175 50.8 175 44 175 C44 181.6 44 188.2 44 195 C29.48 195 14.96 195 0 195 C0 130.65 0 66.3 0 0 Z " fill="#666665" transform="translate(980,621)"/>
<path d="M0 0 C0.33 0 0.66 0 1 0 C1 36.96 1 73.92 1 112 C7.93 112 14.86 112 22 112 C25.61916667 112.12754772 29.20420285 112.26433011 32.8125 112.5 C33.62396484 112.54769531 34.43542969 112.59539062 35.27148438 112.64453125 C37.18132182 112.75753938 39.09072823 112.87780661 41 113 C41 115.31 41 117.62 41 120 C48.26 120 55.52 120 63 120 C63 131.88 63 143.76 63 156 C49.14 156 35.28 156 21 156 C21 149.73 21 143.46 21 137 C14.07 137 7.14 137 0 137 C0 91.79 0 46.58 0 0 Z " fill="#666565" transform="translate(222,659)"/>
<path d="M0 0 C6.6 0 13.2 0 20 0 C21.20841158 11.32310923 21.12737122 22.57787249 21.09765625 33.953125 C21.09578798 36.06589728 21.09436601 38.17867 21.09336853 40.29144287 C21.08957557 45.81509628 21.07977328 51.33872283 21.06866455 56.86236572 C21.05838068 62.51370887 21.05385605 68.16505642 21.04882812 73.81640625 C21.03814771 84.87761779 21.0205775 95.93880244 21 107 C14.07 107 7.14 107 0 107 C0 71.69 0 36.38 0 0 Z " fill="#F80818" transform="translate(286,445)"/>
<path d="M0 0 C6.6 0 13.2 0 20 0 C20 21.12 20 42.24 20 64 C26.93 64 33.86 64 41 64 C40.96041973 57.79207086 40.96041973 57.79207086 40.90991211 51.58422852 C40.90741455 50.81522217 40.90491699 50.04621582 40.90234375 49.25390625 C40.89710693 48.46314697 40.89187012 47.6723877 40.88647461 46.85766602 C41 45 41 45 42 44 C43.4887186 43.91330568 44.981445 43.89296506 46.47265625 43.90234375 C47.28226807 43.90484131 48.09187988 43.90733887 48.92602539 43.90991211 C49.96106201 43.91901611 50.99609863 43.92812012 52.0625 43.9375 C55.341875 43.958125 58.62125 43.97875 62 44 C62 50.93 62 57.86 62 65 C48.14 65 34.28 65 20 65 C20 71.93 20 78.86 20 86 C13.4 86 6.8 86 0 86 C0 57.62 0 29.24 0 0 Z " fill="#A70008" transform="translate(307,466)"/>
<path d="M0 0 C0.85667267 0.00359528 1.71334534 0.00719055 2.59597778 0.01089478 C3.4934523 0.01074875 4.39092682 0.01060272 5.31559753 0.01045227 C8.29702123 0.01115175 11.27838329 0.01894575 14.25979614 0.02676392 C16.32102932 0.02862797 18.38226293 0.03005193 20.4434967 0.03105164 C25.88017999 0.03487779 31.31683675 0.04470891 36.75350952 0.05575562 C42.29661704 0.06596764 47.83972882 0.07054881 53.38284302 0.07559204 C64.2676222 0.08633109 75.15237469 0.10392867 86.03713989 0.12442017 C86.03713989 7.05442017 86.03713989 13.98442017 86.03713989 21.12442017 C55.34713989 21.12442017 24.65713989 21.12442017 -6.96286011 21.12442017 C-6.96286011 0.01234285 -6.96286011 0.01234285 0 0 Z " fill="#FA0918" transform="translate(587.9628601074219,362.8755798339844)"/>
<path d="M0 0 C9.57 0 19.14 0 29 0 C29 6.6 29 13.2 29 20 C58.7 20 88.4 20 119 20 C119 16.04 119 12.08 119 8 C119.375 3.8125 119.375 3.8125 120 1 C122.55723229 -0.27861615 124.36737102 -0.11336609 127.2265625 -0.09765625 C128.2578125 -0.09443359 129.2890625 -0.09121094 130.3515625 -0.08789062 C131.43179688 -0.07951172 132.51203125 -0.07113281 133.625 -0.0625 C135.25695312 -0.05573242 135.25695312 -0.05573242 136.921875 -0.04882812 C139.61460662 -0.0370179 142.30731009 -0.01908205 145 0 C145 6.6 145 13.2 145 20 C168.76 20 192.52 20 217 20 C217 13.4 217 6.8 217 0 C223.6 0 230.2 0 237 0 C238 9 238 9 238 21 C142.96 21 47.92 21 -50 21 C-50 20.67 -50 20.34 -50 20 C-33.5 20 -17 20 0 20 C0 13.4 0 6.8 0 0 Z " fill="#890107" transform="translate(555,469)"/>
<path d="M0 0 C25.08 0 50.16 0 76 0 C76 6.93 76 13.86 76 21 C51.58 21 27.16 21 2 21 C2 27.6 2 34.2 2 41 C1.34 41 0.68 41 0 41 C0 27.47 0 13.94 0 0 Z " fill="#FA0917" transform="translate(479,363)"/>
<path d="M0 0 C28.05 0 56.1 0 85 0 C85 5.61 85 11.22 85 17 C56.95 17 28.9 17 0 17 C0 11.39 0 5.78 0 0 Z " fill="#5BF9FA" transform="translate(592,846)"/>
<path d="M0 0 C13.2 0 26.4 0 40 0 C40 6.93 40 13.86 40 21 C33.73 21 27.46 21 21 21 C20.67 22.98 20.34 24.96 20 27 C13.4 27 6.8 27 0 27 C0 33.93 0 40.86 0 48 C-6.93 48 -13.86 48 -21 48 C-21 40.74 -21 33.48 -21 26 C-14.07 26 -7.14 26 0 26 C0 17.42 0 8.84 0 0 Z " fill="#9A9898" transform="translate(348,552)"/>
<path d="M0 0 C6.6 0 13.2 0 20 0 C20 0.33 20 0.66 20 1 C13.73 1 7.46 1 1 1 C1 14.86 1 28.72 1 43 C14.86 43 28.72 43 43 43 C43 49.27 43 55.54 43 62 C28.81 62 14.62 62 0 62 C0 56.06 0 50.12 0 44 C-6.6 44 -13.2 44 -20 44 C-20 50.27 -20 56.54 -20 63 C-14.12116997 62.96042231 -14.12116997 62.96042231 -8.24243164 62.90991211 C-7.51403076 62.90741455 -6.78562988 62.90491699 -6.03515625 62.90234375 C-5.2862915 62.89710693 -4.53742676 62.89187012 -3.76586914 62.88647461 C-2 63 -2 63 -1 64 C-1 69.94 -1 75.88 -1 82 C-14.2 82 -27.4 82 -41 82 C-41 81.67 -41 81.34 -41 81 C-34.07 81 -27.14 81 -20 81 C-20.2475 77.4421875 -20.2475 77.4421875 -20.5 73.8125 C-21.15650796 63.53645528 -21.06817713 53.29474588 -21 43 C-14.07 43 -7.14 43 0 43 C0 28.81 0 14.62 0 0 Z " fill="#A20008" transform="translate(347,341)"/>
<path d="M0 0 C20.79 0 41.58 0 63 0 C63 6.6 63 13.2 63 20 C42.21 20 21.42 20 0 20 C0 13.4 0 6.8 0 0 Z " fill="#F90817" transform="translate(793,384)"/>
<path d="M0 0 C61.05 0 122.1 0 185 0 C185 6.93 185 13.86 185 21 C199.19 21 213.38 21 228 21 C228 27.6 228 34.2 228 41 C220.74 41 213.48 41 206 41 C206 34.73 206 28.46 206 22 C204.35515625 22.01160156 202.7103125 22.02320313 201.015625 22.03515625 C187.29636471 22.10114397 173.69565807 21.81765123 160 21 C160 14.4 160 7.8 160 1 C107.2 1 54.4 1 0 1 C0 0.67 0 0.34 0 0 Z " fill="#910107" transform="translate(545,187)"/>
<path d="M0 0 C0 6.93 0 13.86 0 21 C-16.83 21 -33.66 21 -51 21 C-51 14.4 -51 7.8 -51 1 C-43.89754485 0.85745807 -36.79508713 0.7150451 -29.69262695 0.57275391 C-27.27433196 0.52428717 -24.85603769 0.47578462 -22.43774414 0.42724609 C-18.97021671 0.3576541 -15.50268675 0.28818914 -12.03515625 0.21875 C-10.94662857 0.19687622 -9.85810089 0.17500244 -8.73658752 0.15246582 C-7.23514442 0.12243469 -7.23514442 0.12243469 -5.70336914 0.09179688 C-4.37433311 0.06514954 -4.37433311 0.06514954 -3.01844788 0.03796387 C-1 0 -1 0 0 0 Z " fill="#B10009" transform="translate(751,468)"/>
<path d="M0 0 C16.5 0 33 0 50 0 C50 6.6 50 13.2 50 20 C33.5 20 17 20 0 20 C0 13.4 0 6.8 0 0 Z " fill="#AD0009" transform="translate(505,469)"/>
<path d="M0 0 C9.24 0 18.48 0 28 0 C28 8.58 28 17.16 28 26 C34.6 26 41.2 26 48 26 C48 33.26 48 40.52 48 48 C41.4 48 34.8 48 28 48 C28 41.07 28 34.14 28 27 C21.4 27 14.8 27 8 27 C7.67 18.42 7.34 9.84 7 1 C4.69 1 2.38 1 0 1 C0 0.67 0 0.34 0 0 Z " fill="#959393" transform="translate(891,552)"/>
<path d="M0 0 C0.33 0 0.66 0 1 0 C1.02327251 11.75351604 1.04099058 23.50702651 1.05181217 35.26056099 C1.05700859 40.71945134 1.06404668 46.17832581 1.07543945 51.63720703 C1.08638438 56.91513091 1.09230119 62.19303961 1.09487724 67.47097397 C1.09671073 69.47456984 1.10029061 71.47816498 1.10573006 73.4817543 C1.11309503 76.30963116 1.11398454 79.13744698 1.11352539 81.96533203 C1.11712067 82.77526611 1.12071594 83.5852002 1.12442017 84.41967773 C1.11182593 91.68807514 0.52238409 98.68662268 0 106 C-13.53 106 -27.06 106 -41 106 C-41 99.4 -41 92.8 -41 86 C-47.93 86 -54.86 86 -62 86 C-62 85.67 -62 85.34 -62 85 C-41.54 85 -21.08 85 0 85 C0 56.95 0 28.9 0 0 Z " fill="#B00008" transform="translate(855,404)"/>
<path d="M0 0 C13.53 0 27.06 0 41 0 C41 6.93 41 13.86 41 21 C27.47 21 13.94 21 0 21 C0 14.07 0 7.14 0 0 Z " fill="#510404" transform="translate(836,510)"/>
<path d="M0 0 C14.19 0 28.38 0 43 0 C43 6.6 43 13.2 43 20 C28.81 20 14.62 20 0 20 C0 13.4 0 6.8 0 0 Z " fill="#B00109" transform="translate(410,490)"/>
<path d="M0 0 C13.53 0 27.06 0 41 0 C41 6.6 41 13.2 41 20 C27.14 20 13.28 20 -1 20 C-0.67 13.4 -0.34 6.8 0 0 Z " fill="#540303" transform="translate(389,511)"/>
<path d="M0 0 C6.6 0 13.2 0 20 0 C21.18130264 11.16435766 21.13413339 22.25443701 21.11352539 33.46582031 C21.11324293 35.62519835 21.11340239 37.78457649 21.1139679 39.94395447 C21.11425359 45.775711 21.10839379 51.60744677 21.10139394 57.43919849 C21.09512237 63.54505621 21.0945536 69.65091446 21.09336853 75.7567749 C21.0902664 87.30552677 21.08206814 98.85426912 21.07201904 110.40301681 C21.06082311 123.55661067 21.05533869 136.71020499 21.05032361 149.86380243 C21.03988456 176.90920707 21.02210427 203.9546026 21 231 C14.07 231 7.14 231 0 231 C0 245.19 0 259.38 0 274 C-6.6 274 -13.2 274 -20 274 C-20 280.27 -20 286.54 -20 293 C-20.33 293 -20.66 293 -21 293 C-21 286.4 -21 279.8 -21 273 C-14.4 273 -7.8 273 -1 273 C-1 258.81 -1 244.62 -1 230 C5.93 230 12.86 230 20 230 C20 161.03 20 92.06 20 21 C13.4 21 6.8 21 0 21 C0 14.07 0 7.14 0 0 Z " fill="#B6B5B5" transform="translate(919,600)"/>
<path d="M0 0 C7.26 0 14.52 0 22 0 C22 89.1 22 178.2 22 270 C21.67 270 21.34 270 21 270 C21 188.16 21 106.32 21 22 C14.07 22 7.14 22 0 22 C0 14.74 0 7.48 0 0 Z " fill="#5B5B5A" transform="translate(939,578)"/>
<path d="M0 0 C0.33 0 0.66 0 1 0 C1 22.11 1 44.22 1 67 C-8.9 67.495 -8.9 67.495 -19 68 C-19.33 74.27 -19.66 80.54 -20 87 C-33.86 87 -47.72 87 -62 87 C-62 80.07 -62 73.14 -62 66 C-55.07 66 -48.14 66 -41 66 C-41 72.6 -41 79.2 -41 86 C-34.4 86 -27.8 86 -21 86 C-21 79.4 -21 72.8 -21 66 C-14.07 66 -7.14 66 0 66 C0 44.22 0 22.44 0 0 Z " fill="#B20008" transform="translate(939,444)"/>
<path d="M0 0 C8.91 0 17.82 0 27 0 C27 6.93 27 13.86 27 21 C18.09 21 9.18 21 0 21 C0 14.07 0 7.14 0 0 Z " fill="#F90918" transform="translate(700,363)"/>
<path d="M0 0 C8.91 0 17.82 0 27 0 C26.67 6.93 26.34 13.86 26 21 C17.42 21 8.84 21 0 21 C0 14.07 0 7.14 0 0 Z " fill="#CC010A" transform="translate(555,363)"/>
<path d="M0 0 C6.6 0 13.2 0 20 0 C20 12.87 20 25.74 20 39 C12.41 39 4.82 39 -3 39 C-3 32.73 -3 26.46 -3 20 C4.26 20 11.52 20 19 20 C19 13.73 19 7.46 19 1 C12.73 1 6.46 1 0 1 C0 0.67 0 0.34 0 0 Z " fill="#770105" transform="translate(922,384)"/>
<path d="M0 0 C0.9583374 0.00523682 1.9166748 0.01047363 2.90405273 0.01586914 C4.45576172 0.02070313 4.45576172 0.02070313 6.03881836 0.02563477 C7.12743164 0.03401367 8.21604492 0.04239258 9.33764648 0.05102539 C10.97636719 0.05779297 10.97636719 0.05779297 12.64819336 0.06469727 C15.3572008 0.07652699 18.06618028 0.09446308 20.77514648 0.11352539 C20.77514648 6.38352539 20.77514648 12.65352539 20.77514648 19.11352539 C17.83382757 20.09396503 15.95012984 20.22973741 12.88842773 20.21118164 C11.95063477 20.20795898 11.0128418 20.20473633 10.04663086 20.20141602 C9.07016602 20.19303711 8.09370117 20.1846582 7.08764648 20.17602539 C6.09958008 20.17151367 5.11151367 20.16700195 4.09350586 20.16235352 C1.65399174 20.15056842 -0.78540041 20.1341155 -3.22485352 20.11352539 C-3.25373866 16.96771116 -3.27161275 13.8219307 -3.28735352 10.67602539 C-3.29573242 9.77819336 -3.30411133 8.88036133 -3.31274414 7.95532227 C-3.3159668 7.10131836 -3.31918945 6.24731445 -3.32250977 5.36743164 C-3.33036499 4.18129272 -3.33036499 4.18129272 -3.33837891 2.97119141 C-3.16971725 0.21130637 -2.75734354 0.14069623 0 0 Z " fill="#7E0006" transform="translate(859.224853515625,383.886474609375)"/>
<path d="M0 0 C6.93 0 13.86 0 21 0 C21 7.26 21 14.52 21 22 C14.07 22 7.14 22 0 22 C0 14.74 0 7.48 0 0 Z " fill="#686767" transform="translate(306,578)"/>
<path d="M0 0 C6.93 0 13.86 0 21 0 C21 7.26 21 14.52 21 22 C14.07 22 7.14 22 0 22 C0 14.74 0 7.48 0 0 Z " fill="#959594" transform="translate(327,578)"/>
<path d="M0 0 C0.83265381 0.00523682 1.66530762 0.01047363 2.52319336 0.01586914 C3.33280518 0.0183667 4.14241699 0.02086426 4.9765625 0.0234375 C6.01159912 0.0325415 7.04663574 0.04164551 8.11303711 0.05102539 C11.39241211 0.07165039 14.67178711 0.09227539 18.05053711 0.11352539 C18.05053711 7.04352539 18.05053711 13.97352539 18.05053711 21.11352539 C4.19053711 21.11352539 -9.66946289 21.11352539 -23.94946289 21.11352539 C-23.94946289 20.78352539 -23.94946289 20.45352539 -23.94946289 20.11352539 C-17.01946289 20.11352539 -10.08946289 20.11352539 -2.94946289 20.11352539 C-2.98904316 13.90559625 -2.98904316 13.90559625 -3.03955078 7.69775391 C-3.04204834 6.92874756 -3.0445459 6.15974121 -3.04711914 5.36743164 C-3.05497437 4.18129272 -3.05497437 4.18129272 -3.06298828 2.97119141 C-2.9047402 0.38170833 -2.58645695 0.15062022 0 0 Z " fill="#BB0008" transform="translate(350.949462890625,509.886474609375)"/>
<path d="M0 0 C14.19 0 28.38 0 43 0 C43 6.6 43 13.2 43 20 C35.74 20 28.48 20 21 20 C21 13.73 21 7.46 21 1 C14.07 1 7.14 1 0 1 C0 0.67 0 0.34 0 0 Z " fill="#A10109" transform="translate(730,208)"/>
<path d="M0 0 C20.13 0 40.26 0 61 0 C61 0.33 61 0.66 61 1 C47.47 1 33.94 1 20 1 C20 7.27 20 13.54 20 20 C19 21 19 21 17.14233398 21.11352539 C16.35157471 21.10828857 15.56081543 21.10305176 14.74609375 21.09765625 C13.9770874 21.09515869 13.20808105 21.09266113 12.41577148 21.09008789 C11.43294189 21.08098389 10.4501123 21.07187988 9.4375 21.0625 C4.7659375 21.0315625 4.7659375 21.0315625 0 21 C0 14.07 0 7.14 0 0 Z " fill="#810006" transform="translate(369,510)"/>
<path d="M0 0 C6.93 0 13.86 0 21 0 C21 6.93 21 13.86 21 21 C14.07 21 7.14 21 0 21 C0 14.07 0 7.14 0 0 Z " fill="#7D0107" transform="translate(772,363)"/>
<path d="M0 0 C7.26 0 14.52 0 22 0 C22 6.6 22 13.2 22 20 C14.74 20 7.48 20 0 20 C0 13.4 0 6.8 0 0 Z " fill="#F90816" transform="translate(877,404)"/>
<path d="M0 0 C0 6.93 0 13.86 0 21 C-6.27 21 -12.54 21 -19 21 C-19.33 22.98 -19.66 24.96 -20 27 C-26.6 27 -33.2 27 -40 27 C-40 26.67 -40 26.34 -40 26 C-33.73 26 -27.46 26 -21 26 C-20.67 17.75 -20.34 9.5 -20 1 C-15.3284375 0.7525 -15.3284375 0.7525 -10.5625 0.5 C-9.57967041 0.44779297 -8.59684082 0.39558594 -7.58422852 0.34179688 C-6.43071899 0.28088867 -6.43071899 0.28088867 -5.25390625 0.21875 C-4.46314697 0.17685547 -3.6723877 0.13496094 -2.85766602 0.09179688 C-1.90578081 0.04475931 -0.95304668 0 0 0 Z " fill="#AFAEAF" transform="translate(388,552)"/>
<path d="M0 0 C6.93 0 13.86 0 21 0 C20.67 6.93 20.34 13.86 20 21 C13.4 21 6.8 21 0 21 C0 14.07 0 7.14 0 0 Z " fill="#C1C0C0" transform="translate(327,600)"/>
<path d="M0 0 C6.6 0 13.2 0 20 0 C20 6.93 20 13.86 20 21 C13.4 21 6.8 21 0 21 C0 14.07 0 7.14 0 0 Z " fill="#D1000A" transform="translate(368,363)"/>
<path d="M0 0 C6.93 0 13.86 0 21 0 C21 6.27 21 12.54 21 19 C14.07 19 7.14 19 0 19 C0 12.73 0 6.46 0 0 Z " fill="#504D4C" transform="translate(327,559)"/>
<path d="M0 0 C6.6 0 13.2 0 20 0 C20 6.27 20 12.54 20 19 C13.4 19 6.8 19 0 19 C0 12.73 0 6.46 0 0 Z " fill="#494544" transform="translate(919,559)"/>
<path d="M0 0 C6.27 0 12.54 0 19 0 C19 5.94 19 11.88 19 18 C5.8 18 -7.4 18 -21 18 C-21 17.67 -21 17.34 -21 17 C-14.07 17 -7.14 17 0 17 C0 11.39 0 5.78 0 0 Z " fill="#980107" transform="translate(327,405)"/>
<path d="M0 0 C6.6 0 13.2 0 20 0 C20 0.33 20 0.66 20 1 C13.73 1 7.46 1 1 1 C1 14.86 1 28.72 1 43 C5.95 43 10.9 43 16 43 C16 43.33 16 43.66 16 44 C11.05 44 6.1 44 1 44 C1 49.94 1 55.88 1 62 C0.67 62 0.34 62 0 62 C0 56.06 0 50.12 0 44 C-6.6 44 -13.2 44 -20 44 C-20 50.27 -20 56.54 -20 63 C-14.06 63 -8.12 63 -2 63 C-2 63.33 -2 63.66 -2 64 C-8.27 64 -14.54 64 -21 64 C-21 57.07 -21 50.14 -21 43 C-14.07 43 -7.14 43 0 43 C0 28.81 0 14.62 0 0 Z " fill="#A4030B" transform="translate(347,341)"/>
<path d="M0 0 C0.33 0 0.66 0 1 0 C1 6.6 1 13.2 1 20 C-2.96 20 -6.92 20 -11 20 C-11 25.94 -11 31.88 -11 38 C-11.99 38 -12.98 38 -14 38 C-14 31.73 -14 25.46 -14 19 C-9.38 19 -4.76 19 0 19 C0 12.73 0 6.46 0 0 Z " fill="#BDBCBC" transform="translate(879,893)"/>
<path d="M0 0 C9.1796875 -0.1953125 9.1796875 -0.1953125 12 0 C12.66 0.66 13.32 1.32 14 2 C13.07767578 2.09087891 13.07767578 2.09087891 12.13671875 2.18359375 C11.32847656 2.26738281 10.52023437 2.35117187 9.6875 2.4375 C8.88699219 2.51871094 8.08648437 2.59992188 7.26171875 2.68359375 C4.83912821 2.95265693 4.83912821 2.95265693 2 4 C1.67 8.62 1.34 13.24 1 18 C0.67 18 0.34 18 0 18 C0 12.06 0 6.12 0 0 Z " fill="#D80414" transform="translate(402,284)"/>
<path d="M0 0 C0.33 0 0.66 0 1 0 C1.33 1.98 1.66 3.96 2 6 C2.33 6 2.66 6 3 6 C3 8.64 3 11.28 3 14 C4.32 14.33 5.64 14.66 7 15 C7 15.33 7 15.66 7 16 C4.69 16 2.38 16 0 16 C0 10.72 0 5.44 0 0 Z " fill="#102724" transform="translate(787,679)"/>
<path d="M0 0 C1.485 0.99 1.485 0.99 3 2 C3.33 1.67 3.66 1.34 4 1 C5.99958364 0.95919217 8.00045254 0.95745644 10 1 C10 1.66 10 2.32 10 3 C11.32 3.33 12.64 3.66 14 4 C9.38 4 4.76 4 0 4 C0 2.68 0 1.36 0 0 Z " fill="#67F7F7" transform="translate(753,791)"/>
<path d="M0 0 C0.66 1.32 1.32 2.64 2 4 C-1.96 4 -5.92 4 -10 4 C-10 3.34 -10 2.68 -10 2 C-9.04287109 1.90912109 -9.04287109 1.90912109 -8.06640625 1.81640625 C-6.82697266 1.69072266 -6.82697266 1.69072266 -5.5625 1.5625 C-4.73878906 1.48128906 -3.91507812 1.40007813 -3.06640625 1.31640625 C-1.01337975 1.21069185 -1.01337975 1.21069185 0 0 Z " fill="#101919" transform="translate(477,691)"/>
</svg>
